<?xml version="1.0" encoding="UTF-8"?>
<svg version="1.1" xmlns="http://www.w3.org/2000/svg" width="537" height="465">
<path d="M0 0 C0.7734375 0.1134375 1.546875 0.226875 2.34375 0.34375 C10.70280246 1.87428073 19.91242985 5.81484157 25.265625 12.60546875 C30.3316985 20.00620865 32.47283338 28.61819376 34.5 37.25 C35.70498273 42.3229107 37.53992654 46.41917357 40 51 C40 51.66 40 52.32 40 53 C40.66 53 41.32 53 42 53 C42 53.66 42 54.32 42 55 C42.66 55 43.32 55 44 55 C45.54331236 56.67216576 47.01114909 58.41451538 48.4375 60.1875 C49.61119141 61.63189453 49.61119141 61.63189453 50.80859375 63.10546875 C55.30969332 69.05077139 57.19851215 73.50324716 57 81 C56.22942826 84.47712536 55.01332348 87.13143702 52.25 89.5 C48.96906113 90.22909753 46.30618571 89.58658134 43 89 C41.23071614 88.79840244 39.4597208 88.61139757 37.6875 88.4375 C36.84574219 88.35371094 36.00398438 88.26992187 35.13671875 88.18359375 C33.02532232 87.97146407 33.02532232 87.97146407 31 88 C31 89.98 31 91.96 31 94 C34.64535075 95.82267538 39.02591537 94.95061075 43.03125 94.83984375 C46 95 46 95 48 97 C48.20625 97.969375 48.4125 98.93875 48.625 99.9375 C49.62908295 103.04685389 49.62908295 103.04685389 51.73046875 103.84765625 C52.76107422 104.17056641 52.76107422 104.17056641 53.8125 104.5 C57.42813951 105.65043075 59.76885453 107.00943167 62.125 110.140625 C63.52979907 113.12582302 63.40612001 116.14238538 63.55859375 119.3984375 C64.22561592 123.32973632 66.25753529 125.95409122 68.625 129.08984375 C71.90833699 133.65107042 71.24504946 138.97772329 70.8125 144.3125 C69.56395523 146.90563145 67.4920936 147.72200328 65 149 C67.97 148.67 70.94 148.34 74 148 C77.00202845 152.12778912 77.60134725 154.93150172 77 160 C73.60188148 169.89095212 65.93943306 177.56172025 58 184 C56.576875 185.2065625 56.576875 185.2065625 55.125 186.4375 C53 188 53 188 51 188 C51 188.66 51 189.32 51 190 C48.8046875 191.65625 48.8046875 191.65625 45.875 193.5 C44.92367188 194.1084375 43.97234375 194.716875 42.9921875 195.34375 C37.61928399 198.31778536 33.13812558 199.43843754 27 199 C24.98952378 198.36562644 22.98737903 197.7033982 21 197 C21.18175781 197.92554688 21.36351562 198.85109375 21.55078125 199.8046875 C23.4358075 209.75209907 24.70521713 219.70375658 25.79956055 229.7668457 C26.68670635 237.74079545 27.84108208 245.64355445 29.125 253.5625 C30.70913064 263.38116958 31.72311405 273.05979426 32 283 C27.70816541 281.35442612 23.95419701 279.32599824 20 277 C21.03060547 277.90492188 21.03060547 277.90492188 22.08203125 278.828125 C22.98308594 279.62734375 23.88414062 280.4265625 24.8125 281.25 C25.70582031 282.03890625 26.59914063 282.8278125 27.51953125 283.640625 C29.65280415 285.66975386 31.41140119 287.53001913 33 290 C33 290.66 33 291.32 33 292 C33.66 292 34.32 292 35 292 C50.62954464 319.13888253 59.30253787 346.58409108 61 378 C61.03996094 378.7125293 61.07992187 379.42505859 61.12109375 380.15917969 C62.25824897 404.05081094 59.61720933 431.55907156 43.6875 450.375 C36.61696364 457.88744488 29.59436894 460.99921707 19.41015625 461.31640625 C18.76150604 461.33741394 18.11285583 461.35842163 17.44454956 461.38006592 C15.31732553 461.44668446 13.19000616 461.50563545 11.0625 461.5625 C9.97160568 461.59227432 9.97160568 461.59227432 8.8586731 461.62265015 C4.31802147 461.74428196 -0.22283743 461.85109709 -4.76403809 461.94995117 C-6.93037498 461.99844154 -9.0965158 462.05239742 -11.26269531 462.10742188 C-15.19566849 462.20419175 -19.1286567 462.26128538 -23.0625 462.3125 C-24.24900146 462.342229 -25.43550293 462.37195801 -26.65795898 462.40258789 C-33.60953499 462.45032878 -38.10305808 461.77154236 -44 458 C-46.61825837 455.05445934 -47.19233957 452.71086899 -47.375 448.875 C-47 445 -47 445 -45.984375 443.296875 C-42.863227 441.25706961 -39.49351193 441.46403193 -35.875 441.375 C-31.0518399 441.64528236 -31.0518399 441.64528236 -27 440 C-24.89772328 423.12172119 -34.64576942 406.45455714 -41.12744141 391.37744141 C-52.36173307 365.10965983 -59.46550023 338.36547919 -63 310 C-63.329838 327.87937858 -63.329838 327.87937858 -62 345.6875 C-60.95067981 354.40985965 -60.77302912 363.09946693 -60.75 371.875 C-60.73646484 373.80025513 -60.73646484 373.80025513 -60.72265625 375.7644043 C-60.80847323 403.52083313 -68.38993906 431.14310658 -87.671875 451.76953125 C-96.04458276 459.79103483 -104.08942099 462.31307084 -115.44140625 462.30078125 C-116.32730942 462.30506638 -117.21321259 462.3093515 -118.1259613 462.31376648 C-119.9891576 462.31948221 -121.8523762 462.32003049 -123.71557617 462.31567383 C-126.55751613 462.31250556 -129.39842218 462.33603592 -132.24023438 462.36132812 C-134.05729036 462.36360066 -135.87434913 462.36430483 -137.69140625 462.36328125 C-138.53530411 462.372491 -139.37920197 462.38170074 -140.24867249 462.39118958 C-146.8400784 462.33972769 -150.95044676 460.91588672 -155.875 456.3125 C-158.67679114 451.94500204 -158.74050226 450.1012378 -158 445 C-155.79259319 442.03141843 -154.51402627 441.17134209 -151 440 C-148.16667896 439.77266072 -145.33484519 439.61981954 -142.49609375 439.4765625 C-141.67238281 439.31929688 -140.84867187 439.16203125 -140 439 C-137.01168987 434.51753481 -138.02780569 431.17030613 -139 426 C-139.90546331 422.65702944 -140.86760131 419.33682463 -141.84545898 416.01464844 C-144.39145672 407.09239088 -146.10008897 397.99992698 -147.85620117 388.89746094 C-148.09185791 387.67704102 -148.32751465 386.45662109 -148.5703125 385.19921875 C-148.91690918 383.40170166 -148.91690918 383.40170166 -149.27050781 381.56787109 C-149.99414499 378.02863623 -150.82403485 374.52891084 -151.6796875 371.01953125 C-153.49320791 363.18125232 -153.59424112 358.34802644 -149.875 351.0625 C-145.99530493 343.2402606 -142.94593007 335.21191496 -140 327 C-140.44988281 327.77601563 -140.89976562 328.55203125 -141.36328125 329.3515625 C-145.12305388 335.66556944 -149.08293875 341.65555981 -153.625 347.4375 C-154.06755127 348.00355957 -154.51010254 348.56961914 -154.96606445 349.15283203 C-158.07256118 353.04068233 -161.35080241 356.61145938 -165 360 C-165.66 360 -166.32 360 -167 360 C-167 360.66 -167 361.32 -167 362 C-175.05927455 368.23360215 -187.66033746 376.31263912 -198 377 C-200.875 375.0625 -200.875 375.0625 -203 373 C-202.505 373.61875 -202.01 374.2375 -201.5 374.875 C-196.93127401 384.39317914 -200.15086817 402.27412374 -203.140625 412.16015625 C-204.81145437 416.86565463 -206.71765925 421.4086538 -208.8125 425.9375 C-210.18129045 429.46753854 -210.22983532 432.24602312 -210 436 C-205.58969038 437.04243682 -201.19856652 437.98410417 -196.72265625 438.6953125 C-195.96718506 438.81801514 -195.21171387 438.94071777 -194.43334961 439.06713867 C-192.90841047 439.31180633 -191.38184068 439.54654143 -189.85375977 439.77075195 C-184.49612332 440.6403604 -184.49612332 440.6403604 -182.0546875 442.41015625 C-179.59272889 446.12133089 -179.70268124 449.68887793 -180 454 C-181.3139687 457.11203113 -182.16163978 458.56933285 -185.17938232 460.11955261 C-188.55384888 461.17288227 -191.40613299 461.26133677 -194.94238281 461.2746582 C-195.96054832 461.2823246 -195.96054832 461.2823246 -196.99928284 461.29014587 C-199.2339877 461.30399732 -201.46838241 461.30308787 -203.703125 461.30078125 C-205.26625685 461.30467191 -206.82938765 461.30900735 -208.39251709 461.31376648 C-211.66747463 461.32122008 -214.94232437 461.32094462 -218.21728516 461.31567383 C-222.39440548 461.3098941 -226.57108023 461.3267778 -230.74812698 461.3500185 C-233.97740214 461.36482437 -237.20657185 461.36561804 -240.43587494 461.36250877 C-241.97470733 461.36301901 -243.51354608 461.36820022 -245.05234528 461.37832069 C-257.09026123 461.44775287 -266.0194282 460.74772085 -275.05859375 452.1015625 C-284.82977022 441.52431312 -284.36254927 428.40441727 -284.0625 414.9375 C-283.44873929 401.28519641 -283.44873929 401.28519641 -286 388 C-286.26530518 387.21222168 -286.53061035 386.42444336 -286.80395508 385.61279297 C-289.19924574 379.11766472 -292.55065584 373.39147676 -296.25 367.5625 C-296.8277417 366.63872559 -297.4054834 365.71495117 -298.00073242 364.76318359 C-301.50039752 359.21482658 -305.18466296 353.93338193 -309.14453125 348.70703125 C-312.96904722 343.12726374 -315.94310783 337.02435398 -319 331 C-318.421766 333.25142175 -317.83848105 335.50124882 -317.25 337.75 C-316.98473511 338.76803711 -316.98473511 338.76803711 -316.71411133 339.80664062 C-315.56662968 344.1234777 -314.21736339 348.29953884 -312.6875 352.5 C-310.76043313 358.26584549 -310.51284705 361.85219291 -313.171875 367.48046875 C-322.62622679 385.49964998 -322.62622679 385.49964998 -328 390 C-328.66 390 -329.32 390 -330 390 C-330.23203125 390.58394531 -330.4640625 391.16789062 -330.703125 391.76953125 C-334.62229578 398.5100328 -344.02936756 402.75354187 -350.5 407 C-351.0990918 407.39791748 -351.69818359 407.79583496 -352.31542969 408.20581055 C-356.6475637 411 -356.6475637 411 -360 411 C-360 411.66 -360 412.32 -360 413 C-361.58203125 414.33984375 -361.58203125 414.33984375 -363.8125 415.9375 C-375.77526299 424.75752226 -375.77526299 424.75752226 -382.4375 437 C-382.3360281 440.13157222 -382.3360281 440.13157222 -379.88671875 441.62890625 C-375.67986223 443.62702078 -371.55343386 443.82019594 -366.9609375 444.27734375 C-364 445 -364 445 -362.1328125 446.8515625 C-360.41233878 450.1145299 -360.49105569 452.3737718 -361 456 C-363.4375 458.875 -363.4375 458.875 -366 461 C-366.33 461.33 -366.66 461.66 -367 462 C-369.03295704 462.10469011 -371.0695848 462.13856216 -373.10522461 462.14526367 C-375.06878151 462.15483345 -375.06878151 462.15483345 -377.07200623 462.16459656 C-378.51545169 462.16612638 -379.95889765 462.16723972 -381.40234375 462.16796875 C-382.87911512 462.17118205 -384.35588616 462.17454618 -385.83265686 462.17805481 C-388.9389825 462.18405761 -392.04528029 462.18589386 -395.15161133 462.18530273 C-399.10893347 462.18520179 -403.06607342 462.19877774 -407.02335262 462.21607494 C-410.08023374 462.22727105 -413.13707213 462.22921952 -416.19397163 462.22869301 C-417.65103335 462.22986462 -419.10809648 462.23423985 -420.56513786 462.24202538 C-442.64870389 462.34884664 -442.64870389 462.34884664 -450 456 C-458.57356017 446.16925913 -459.34228457 436.63030059 -459 424 C-458.99484375 423.13117188 -458.9896875 422.26234375 -458.984375 421.3671875 C-458.362494 405.77574239 -452.14167543 390.17812307 -446 376 C-445.34 376 -444.68 376 -444 376 C-443.88011719 374.97132813 -443.88011719 374.97132813 -443.7578125 373.921875 C-442.79992086 370.22856083 -440.96574282 367.38654195 -438.875 364.25 C-438.26495117 363.32030396 -438.26495117 363.32030396 -437.64257812 362.37182617 C-434.33236767 357.38117724 -430.79293921 352.63490632 -427 348 C-426.278125 347.09378906 -425.55625 346.18757813 -424.8125 345.25390625 C-418.5551063 337.46387389 -412.430491 330.45502359 -404 325 C-403.34 325 -402.68 325 -402 325 C-401.34 327.97 -400.68 330.94 -400 334 C-399.95512451 333.08637695 -399.91024902 332.17275391 -399.86401367 331.23144531 C-395.2268336 238.90363097 -395.2268336 238.90363097 -376 215 C-375.34 215 -374.68 215 -374 215 C-373.79375 214.46890625 -373.5875 213.9378125 -373.375 213.390625 C-371.42038808 209.99226564 -368.77876283 207.48944072 -366 204.75 C-365.4534375 204.19570312 -364.906875 203.64140625 -364.34375 203.0703125 C-360.2533867 199 -360.2533867 199 -358 199 C-358 198.34 -358 197.68 -358 197 C-324.21273686 169.47317741 -280.46279358 164.91780647 -238.5 163.5 C-218.64859797 163.57224603 -218.64859797 163.57224603 -200.78515625 156.2421875 C-199 155 -199 155 -197 155 C-197 154.34 -197 153.68 -197 153 C-195.49609375 151.51953125 -195.49609375 151.51953125 -193.4375 149.8125 C-184.76820071 142.40557236 -177.71989069 134.06150346 -170.71875 125.0703125 C-169.65140625 123.70519531 -169.65140625 123.70519531 -168.5625 122.3125 C-167.92441406 121.48363281 -167.28632813 120.65476562 -166.62890625 119.80078125 C-166.09136719 119.20652344 -165.55382812 118.61226563 -165 118 C-164.34 118 -163.68 118 -163 118 C-162.64228516 117.15888672 -162.64228516 117.15888672 -162.27734375 116.30078125 C-155.57657923 104.23120846 -141.73889432 96.84025015 -129 93 C-128.42572266 92.8242041 -127.85144531 92.6484082 -127.25976562 92.46728516 C-122.42858771 91.46827105 -117.40043032 91.77390874 -112.48510742 91.75976562 C-110.46815357 91.7501462 -108.45225818 91.71913856 -106.43554688 91.6875 C-98.44174577 91.65579429 -91.55436634 92.36731152 -84 95 C-83.32541748 95.22445801 -82.65083496 95.44891602 -81.95581055 95.68017578 C-68.88919826 100.21865152 -57.76668533 107.15418786 -47.2421875 116.1171875 C-44.94582716 118.115754 -44.94582716 118.115754 -42 120 C-42 119.34 -42 118.68 -42 118 C-42.59554688 117.72542969 -43.19109375 117.45085937 -43.8046875 117.16796875 C-45.90622261 116.04989224 -47.37972077 114.91307015 -49.125 113.3125 C-64.39147664 100.01485016 -81.995953 93.97945921 -101 88 C-100.27431554 83.60944955 -99.14948222 81.62386737 -96.0625 78.375 C-93.78662243 75.95455671 -91.84906357 73.77359535 -90 71 C-89.34 71 -88.68 71 -88 71 C-87.731875 70.2575 -87.46375 69.515 -87.1875 68.75 C-86.04723249 66.10938051 -84.90619694 64.14447156 -83 62 C-82.34 62 -81.68 62 -81 62 C-80.6596875 60.9790625 -80.6596875 60.9790625 -80.3125 59.9375 C-78.68773854 56.3011291 -76.67196743 52.97170737 -74 50 C-73.34 50 -72.68 50 -72 50 C-71.79375 49.34 -71.5875 48.68 -71.375 48 C-69.87716561 44.7319977 -68.05274763 42.2289667 -65.85546875 39.40234375 C-64.43395986 37.56186381 -63.04701111 35.69464548 -61.67578125 33.81640625 C-61.27496338 33.26863525 -60.87414551 32.72086426 -60.46118164 32.15649414 C-59.28946367 30.55397319 -58.12123253 28.94890457 -56.953125 27.34375 C-56.30859375 26.5703125 -55.6640625 25.796875 -55 25 C-54.34 25 -53.68 25 -53 25 C-52.75507813 24.41992188 -52.51015625 23.83984375 -52.2578125 23.2421875 C-49.85230352 18.95410627 -45.73198942 16.11603 -42 13 C-41.36835938 12.45859375 -40.73671875 11.9171875 -40.0859375 11.359375 C-28.30010912 1.83040737 -14.87156322 -2.27447438 0 0 Z M19 195 C19.66 195.66 20.32 196.32 21 197 C21 196.34 21 195.68 21 195 C20.34 195 19.68 195 19 195 Z M-139 323 C-138 325 -138 325 -138 325 Z M-206 369 C-206 369.66 -206 370.32 -206 371 C-205.34 370.67 -204.68 370.34 -204 370 C-204.66 369.67 -205.32 369.34 -206 369 Z " fill="#020202" transform="translate(460,3)"/>
<path d="M0 0 C0.66 0.33 1.32 0.66 2 1 C1.27683594 1.81404297 1.27683594 1.81404297 0.5390625 2.64453125 C-0.09257813 3.35996094 -0.72421875 4.07539063 -1.375 4.8125 C-2.00148438 5.52019531 -2.62796875 6.22789062 -3.2734375 6.95703125 C-5.140599 9.08803819 -5.140599 9.08803819 -7 12 C-7.66 12 -8.32 12 -9 12 C-9 12.66 -9 13.32 -9 14 C-10.63604196 15.37073786 -12.30678061 16.70055256 -14 18 C-15.0173873 18.98230498 -16.02596117 19.97469597 -17 21 C-17.66 20.67 -18.32 20.34 -19 20 C-18.67 19.34 -18.34 18.68 -18 18 C-17.34 18 -16.68 18 -16 18 C-15.79375 17.46890625 -15.5875 16.9378125 -15.375 16.390625 C-13.42038808 12.99226564 -10.77876283 10.48944072 -8 7.75 C-7.4534375 7.19570312 -6.906875 6.64140625 -6.34375 6.0703125 C-2.2533867 2 -2.2533867 2 0 2 C0 1.34 0 0.68 0 0 Z " fill="#484546" transform="translate(102,200)"/>
<path d="M0 0 C0.66 0.33 1.32 0.66 2 1 C-0.68448582 3.68945709 -3.37466528 6.37258147 -6.078125 9.04296875 C-7.13543923 10.09112308 -8.19273067 11.13930038 -9.25 12.1875 C-9.79140625 12.72052734 -10.3328125 13.25355469 -10.890625 13.80273438 C-13.80757101 16.62507537 -13.80757101 16.62507537 -16 20 C-16.66 20 -17.32 20 -18 20 C-14.4585151 11.86770134 -6.7747741 5.47747693 0 0 Z " fill="#5E5D5E" transform="translate(53,330)"/>
<path d="M0 0 C0.33 0.66 0.66 1.32 1 2 C0.06558465 3.27310312 -0.87267111 4.543388 -1.8125 5.8125 C-2.59560547 6.87404297 -2.59560547 6.87404297 -3.39453125 7.95703125 C-4.83128877 9.78531393 -6.31815763 11.39896688 -8 13 C-8.99 12.67 -9.98 12.34 -11 12 C-7.37 8.04 -3.74 4.08 0 0 Z " fill="#545353" transform="translate(283,136)"/>
<path d="M0 0 C0 4.03066816 -1.67283027 5.78303008 -4 9 C-4.66 9.66 -5.32 10.32 -6 11 C-4.68 11.66 -3.36 12.32 -2 13 C-4.49092811 14.24546405 -5.41080733 13.7767578 -8 13 C-7.48118887 8.8275894 -6.28848726 6.74583179 -3.4375 3.6875 C-2.79683594 2.99011719 -2.15617187 2.29273437 -1.49609375 1.57421875 C-1.00238281 1.05472656 -0.50867188 0.53523438 0 0 Z " fill="#585757" transform="translate(367,78)"/>
<path d="M0 0 C1.02577148 0.00676758 1.02577148 0.00676758 2.07226562 0.01367188 C3.73571604 0.0253044 5.3991205 0.04323306 7.0625 0.0625 C7.0625 0.3925 7.0625 0.7225 7.0625 1.0625 C-0.57982315 2.49174436 -7.24184453 3.36684839 -14.9375 2.0625 C-14.9375 1.7325 -14.9375 1.4025 -14.9375 1.0625 C-9.89895894 0.23038724 -5.1249338 -0.0453534 0 0 Z " fill="#6D6D6D" transform="translate(190.9375,168.9375)"/>
<path d="M0 0 C0.99 0 1.98 0 3 0 C3 0.66 3 1.32 3 2 C1.36395804 3.37073786 -0.30678061 4.70055256 -2 6 C-3.0173873 6.98230498 -4.02596117 7.97469597 -5 9 C-5.66 8.67 -6.32 8.34 -7 8 C-6.67 7.34 -6.34 6.68 -6 6 C-5.34 6 -4.68 6 -4 6 C-3.71125 5.38125 -3.4225 4.7625 -3.125 4.125 C-2 2 -2 2 0 0 Z " fill="#393939" transform="translate(90,212)"/>
<path d="M0 0 C0.66 0.33 1.32 0.66 2 1 C-0.66666667 3.66666667 -3.33333333 6.33333333 -6 9 C-6.99 8.67 -7.98 8.34 -9 8 C-6.03 5.36 -3.06 2.72 0 0 Z " fill="#686767" transform="translate(53,330)"/>
<path d="M0 0 C0.33 0.66 0.66 1.32 1 2 C1.66 2.33 2.32 2.66 3 3 C-2.75 8 -2.75 8 -5 8 C-4 6 -3 4 -2 2 C-1.34 2 -0.68 2 0 2 C0 1.34 0 0.68 0 0 Z " fill="#545454" transform="translate(388,51)"/>
<path d="M0 0 C0.33 0 0.66 0 1 0 C1 2.64 1 5.28 1 8 C-3.875 6.25 -3.875 6.25 -5 4 C-3.68 4 -2.36 4 -1 4 C-0.67 2.68 -0.34 1.36 0 0 Z " fill="#666666" transform="translate(491,278)"/>
<path d="M0 0 C0.66 0.99 1.32 1.98 2 3 C-2.75 7 -2.75 7 -5 7 C-3.70700306 4.11562221 -2.34058637 2.12780579 0 0 Z " fill="#686868" transform="translate(412,21)"/>
<path d="M0 0 C-1.15173355 2.46800047 -2.04783565 4.04783565 -4 6 C-4.99 5.34 -5.98 4.68 -7 4 C-2.25 0 -2.25 0 0 0 Z " fill="#525252" transform="translate(420,16)"/>
</svg>
