<?xml version="1.0" encoding="UTF-8"?>
<svg version="1.1" xmlns="http://www.w3.org/2000/svg" width="377" height="299">
<path d="M0 0 C0.89203125 0.51304687 1.7840625 1.02609375 2.703125 1.5546875 C7.92199755 4.75167897 10.38639526 7.47122075 13 13 C13.5775 13.928125 14.155 14.85625 14.75 15.8125 C16 18 16 18 16 20 C16.60585938 20.12375 17.21171875 20.2475 17.8359375 20.375 C25.75360977 22.32396548 32.5290042 26.15651876 37.36328125 32.90234375 C38.82464665 35.84438775 39.07557822 37.68394563 38.3125 40.875 C37 43 37 43 35 44 C32.40751328 44.27175818 29.81551489 44.44572568 27.21484375 44.62109375 C26.11849609 44.80865234 26.11849609 44.80865234 25 45 C24.67 45.66 24.34 46.32 24 47 C24.57967529 47.01458252 25.15935059 47.02916504 25.7565918 47.04418945 C28.40087553 47.11898528 31.04394002 47.21553898 33.6875 47.3125 C34.59951172 47.33505859 35.51152344 47.35761719 36.45117188 47.38085938 C45.16681591 47.72948514 45.16681591 47.72948514 49 51 C51.2109375 53.671875 51.2109375 53.671875 53.375 56.75 C56.07069299 60.50859207 58.65111589 63.76242975 62.125 66.8125 C64.57360665 69.20389621 64.95648785 69.63014674 65.375 73.1875 C63.06640648 81.72929604 56.78273538 91.32872125 50 97 C44.02327228 100.36485065 37.33877354 100.4349774 30.625 100.69140625 C29.75875 100.79324219 28.8925 100.89507812 28 101 C26.71879483 103.17715452 26.71879483 103.17715452 27.0625 106.6875 C27.13052293 110.8217823 26.30345611 114.08963168 25 118 C21.90645403 118.99435406 20.09720845 118.87840996 17 118 C17.0721875 119.03898437 17.144375 120.07796875 17.21875 121.1484375 C17.31296473 122.55726066 17.40668092 123.96611722 17.5 125.375 C17.57480591 126.47122681 17.57480591 126.47122681 17.65112305 127.58959961 C17.90905099 131.61034557 17.99367222 135.53297999 17.8125 139.5625 C17.74687887 144.46767956 19.31366882 146.93212706 22 151 C22.495 152.19625 22.99 153.3925 23.5 154.625 C25.00380709 158.00856595 26.64156584 160.169879 29 163 C33.58671272 169.20006225 37.04088495 175.84321024 40.38671875 182.765625 C41.89127583 185.92935106 41.89127583 185.92935106 43.58203125 188.45703125 C45.36380687 191.65244703 46.18477632 194.90372527 47 198.4375 C47.16733643 199.13834717 47.33467285 199.83919434 47.50708008 200.5612793 C48.01451504 202.70536728 48.50816853 204.85228608 49 207 C49.29261719 208.24523437 49.58523438 209.49046875 49.88671875 210.7734375 C51.4885492 217.85274672 52.68937661 224.74603015 53 232 C53.03254883 232.66547852 53.06509766 233.33095703 53.09863281 234.01660156 C53.65514494 246.73768183 52.26898864 257.65902272 46.05078125 269.0390625 C44.93761723 271.0554974 44.93761723 271.0554974 43.91796875 273.4609375 C41.0921996 279.75512563 37.73200252 284.07873468 32 288 C17.60011806 292.79996065 -7.28906024 292.60279482 -21.08203125 286.00390625 C-23.49369716 284.37165461 -24.8046883 282.62093315 -25.67578125 279.8515625 C-26.28691485 276.13537634 -26.25656282 273.65566053 -24.875 270.125 C-23 268 -23 268 -20.3125 266.5625 C-17.72481338 265.17370981 -17.72481338 265.17370981 -17.1875 262.1875 C-18.25264124 258.00886899 -19.9477534 257.1908138 -23.421875 254.84765625 C-26.65965685 252.52724593 -29.56316376 249.93541866 -32.5 247.25 C-33.04043945 246.76571533 -33.58087891 246.28143066 -34.13769531 245.7824707 C-35.46610995 244.56489967 -36.73847896 243.28675147 -38 242 C-38 241.34 -38 240.68 -38 240 C-38.99 240 -39.98 240 -41 240 C-40.91878906 240.81082031 -40.83757812 241.62164062 -40.75390625 242.45703125 C-40.2231359 251.76176046 -42.21477938 256.81512924 -48 264 C-48.76054687 264.98613281 -49.52109375 265.97226562 -50.3046875 266.98828125 C-55.90506073 273.742725 -60.60663962 276.75844975 -69 279 C-70.3959962 279.58294347 -71.7918358 280.16626212 -73.1875 280.75 C-81.58149766 283.50262626 -93.048578 283.33405338 -101.22265625 279.9765625 C-104.18424789 278.34931435 -106.06665021 276.7711347 -108 274 C-108.29793667 269.63026216 -106.50453992 267.16644993 -104.0625 263.75 C-99.26444266 256.89727217 -98.93744635 249.41010694 -98.21875 241.2734375 C-97.95081063 238.48878195 -97.50666498 235.75046702 -97 233 C-100.91791849 232.76012744 -103.52392577 232.78100585 -107.125 234.4375 C-111.60154969 236.45633613 -116.08727437 236.78546609 -120.9375 237.1875 C-121.81212891 237.26935547 -122.68675781 237.35121094 -123.58789062 237.43554688 C-125.72432723 237.63401366 -127.86205884 237.81845654 -130 238 C-130.17088135 238.92558716 -130.17088135 238.92558716 -130.34521484 239.86987305 C-130.50715332 240.67980713 -130.6690918 241.48974121 -130.8359375 242.32421875 C-130.9911084 243.12690186 -131.1462793 243.92958496 -131.30615234 244.7565918 C-132.4280868 248.38412724 -134.88653924 250.124927 -138 252 C-138.54269531 252.34546875 -139.08539063 252.6909375 -139.64453125 253.046875 C-145.20954201 256.19916868 -151.35341734 257.54803575 -157.51171875 259.0703125 C-160.90937952 259.89149205 -160.90937952 259.89149205 -163.66015625 261.11328125 C-166.22935375 262.08691703 -168.0193897 262.17404454 -170.75 262.0625 C-175.60674001 261.96055943 -180.18908265 262.31272609 -185 263 C-185.33 263.33 -185.66 263.66 -186 264 C-184.6078125 264.8353125 -184.6078125 264.8353125 -183.1875 265.6875 C-178.96649173 268.74980011 -177.32408375 270.97447655 -176.5 276.125 C-177 279 -177 279 -179.17431641 280.65039062 C-184.06255218 282.98512083 -189.04421321 282.51228292 -194.375 282.5 C-195.48617187 282.52835937 -196.59734375 282.55671875 -197.7421875 282.5859375 C-204.87384086 282.60291763 -208.72956822 281.90645169 -214 277 C-217.58723032 271.97787755 -218.42344694 266.06940617 -218 260 C-216.68894491 255.80662534 -214.91272078 251.94727091 -213 248 C-212.67 247.01 -212.34 246.02 -212 245 C-220.99967016 246.66352498 -229.34109524 249.48681695 -237.40625 253.78125 C-240.38021607 255.17865574 -243.34485876 256.08589366 -246.5 257 C-251.59176406 258.47960673 -256.10038728 260.34541522 -260.76953125 262.84375 C-262.83654135 263.91526487 -264.88434095 264.74955626 -267.0625 265.5625 C-270.03500496 266.71156794 -270.03500496 266.71156794 -271.25 268.875 C-270.75642458 273.07039108 -266.69229474 275.41701495 -263.625 278 C-262 280 -262 280 -262.1171875 282.48828125 C-263 285 -263 285 -264.96875 286.29296875 C-267.63681447 287.23584956 -270.29691541 288.16177462 -273 289 C-273.75152344 289.23976563 -274.50304687 289.47953125 -275.27734375 289.7265625 C-283.45408456 291.94448496 -291.9206869 291.38634774 -299.34765625 287.1640625 C-303.78348604 284.03905711 -305.77923486 280.18825184 -307 275 C-307.42437587 268.66804262 -306.36901934 264.32301567 -303.8125 258.5625 C-303.49079834 257.81170166 -303.16909668 257.06090332 -302.83764648 256.28735352 C-300.91287996 251.86380099 -298.84469335 247.59564722 -296.37890625 243.4453125 C-295.20274018 241.35953357 -294.13544385 239.26968327 -293.08984375 237.1171875 C-292.7455835 236.41021729 -292.40132324 235.70324707 -292.04663086 234.97485352 C-291.36773087 233.57223696 -290.69497848 232.16662172 -290.02954102 230.75756836 C-287.03772218 224.60700517 -283.6387964 219.63387006 -277.625 216.0625 C-266.79622259 209.07677129 -262.42904449 200.17077301 -257.75 188.375 C-253.03064712 176.83542102 -247.02871823 164.74875798 -238 156 C-236.7625 154.63875 -236.7625 154.63875 -235.5 153.25 C-230.4565534 148.71089806 -223.97730219 145.89777445 -217.9375 142.875 C-217.25623047 142.52824219 -216.57496094 142.18148437 -215.87304688 141.82421875 C-207.26960098 137.51009891 -199.67449984 136.48266053 -190.14257812 135.87695312 C-184.45141224 135.44515585 -180.20849154 134.4904971 -175 132 C-173.50837941 131.48801177 -172.00889127 130.99860168 -170.50390625 130.52734375 C-161.85049849 127.7674384 -153.7912649 124.77037306 -146.0625 119.9375 C-145.09775757 119.33893188 -145.09775757 119.33893188 -144.11352539 118.72827148 C-139.9169913 115.97186193 -137.11993189 112.91920773 -134 109 C-133.195625 108.54625 -132.39125 108.0925 -131.5625 107.625 C-128.40884865 105.62512354 -126.81538467 103.31205364 -124.65625 100.3046875 C-117.34936689 90.13709072 -109.98652697 80.51894693 -98.4296875 75.2265625 C-93.74376245 72.86099905 -89.23622513 69.77769104 -87.05078125 64.8671875 C-86.59617741 63.35884873 -86.16682642 61.84269165 -85.76171875 60.3203125 C-84.36051719 56.05203699 -81.58402096 52.62889142 -79 49 C-77.95406824 47.4194809 -76.91232183 45.83618325 -75.875 44.25 C-74.26979177 41.82751865 -72.67707527 39.61249033 -70.8125 37.375 C-69.19667421 35.25771103 -68.39366346 33.68476674 -67.4375 31.25 C-66.963125 30.1775 -66.48875 29.105 -66 28 C-65.01 27.67 -64.02 27.34 -63 27 C-62.29605388 25.68596724 -61.63654342 24.3479743 -61 23 C-58.35435089 19.35082881 -55.53901539 16.76215835 -52 14 C-50.9171875 12.9171875 -50.9171875 12.9171875 -49.8125 11.8125 C-37.66860465 -0.33139535 -37.66860465 -0.33139535 -29.91015625 -3.24609375 C-27.72581228 -4.03076275 -27.72581228 -4.03076275 -25 -6 C-14.56883218 -8.31803729 -8.93418084 -5.27928868 0 0 Z " fill="#F59D09" transform="translate(308,7)"/>
<path d="M0 0 C0.89203125 0.51304687 1.7840625 1.02609375 2.703125 1.5546875 C7.92199755 4.75167897 10.38639526 7.47122075 13 13 C13.5775 13.928125 14.155 14.85625 14.75 15.8125 C16 18 16 18 16 20 C16.60585938 20.12375 17.21171875 20.2475 17.8359375 20.375 C25.75360977 22.32396548 32.5290042 26.15651876 37.36328125 32.90234375 C38.82464665 35.84438775 39.07557822 37.68394563 38.3125 40.875 C37 43 37 43 35 44 C32.40751328 44.27175818 29.81551489 44.44572568 27.21484375 44.62109375 C26.11849609 44.80865234 26.11849609 44.80865234 25 45 C24.505 45.99 24.505 45.99 24 47 C24.57967529 47.01458252 25.15935059 47.02916504 25.7565918 47.04418945 C28.40087553 47.11898528 31.04394002 47.21553898 33.6875 47.3125 C35.05551758 47.34633789 35.05551758 47.34633789 36.45117188 47.38085938 C45.16681591 47.72948514 45.16681591 47.72948514 49 51 C51.2109375 53.671875 51.2109375 53.671875 53.375 56.75 C56.07069299 60.50859207 58.65111589 63.76242975 62.125 66.8125 C64.57360665 69.20389621 64.95648785 69.63014674 65.375 73.1875 C63.06640648 81.72929604 56.78273538 91.32872125 50 97 C44.02327228 100.36485065 37.33877354 100.4349774 30.625 100.69140625 C29.325625 100.84416016 29.325625 100.84416016 28 101 C26.71879483 103.17715452 26.71879483 103.17715452 27.0625 106.6875 C27.13052293 110.8217823 26.30345611 114.08963168 25 118 C22.39417629 118.93065133 21.35801776 119.14917407 18.75 118.0625 C18.1725 117.711875 17.595 117.36125 17 117 C19.31 116.67 21.62 116.34 24 116 C24.06058594 114.95199219 24.12117188 113.90398437 24.18359375 112.82421875 C24.26801738 111.44529952 24.35266447 110.06639395 24.4375 108.6875 C24.47681641 107.99720703 24.51613281 107.30691406 24.55664062 106.59570312 C24.74927415 103.52838465 25.02322717 100.93031848 26 98 C26.75925781 97.93941406 27.51851563 97.87882812 28.30078125 97.81640625 C29.29464844 97.73261719 30.28851563 97.64882812 31.3125 97.5625 C32.29863281 97.48128906 33.28476562 97.40007812 34.30078125 97.31640625 C37.09375599 97.08187441 37.09375599 97.08187441 40 96 C40 95.34 40 94.68 40 94 C41.0725 94.04125 42.145 94.0825 43.25 94.125 C47.53308557 94.0756983 47.53308557 94.0756983 51 92 C52.29231642 88.95800528 52.29231642 88.95800528 53 86 C53.66 86 54.32 86 55 86 C55.495 84.02 55.495 84.02 56 82 C56.99 82 57.98 82 59 82 C60.42500059 78.00999834 61.40075776 74.19469571 62 70 C61.34 70 60.68 70 60 70 C58.34375 68.390625 58.34375 68.390625 56.5 66.25 C55.8915625 65.55390625 55.283125 64.8578125 54.65625 64.140625 C53.12023037 62.15539208 52.0276034 60.28127955 51 58 C50.34 58 49.68 58 49 58 C48.54625 57.030625 48.0925 56.06125 47.625 55.0625 C46.34213779 51.92920418 46.34213779 51.92920418 44 51 C42.50078696 50.95134765 40.99933375 50.96303414 39.5 51.0078125 C38.613125 51.02457031 37.72625 51.04132812 36.8125 51.05859375 C34.93729938 51.10286932 33.06226693 51.15495536 31.1875 51.21484375 C30.300625 51.22902344 29.41375 51.24320313 28.5 51.2578125 C27.27796875 51.29092529 27.27796875 51.29092529 26.03125 51.32470703 C25.02578125 51.16397705 25.02578125 51.16397705 24 51 C21.8480563 47.77208445 21.79913557 46.71599191 22 43 C25.01490557 41.99503148 27.04181692 41.89664697 30.1875 41.9375 C31.08855469 41.94652344 31.98960937 41.95554688 32.91796875 41.96484375 C33.60503906 41.97644531 34.29210937 41.98804688 35 42 C35.30407497 38.12304411 35.48686463 35.76275459 33.359375 32.4296875 C30.69393348 29.68481229 28.56269698 28.65296474 25 27.3125 C15.27676621 23.58120903 15.27676621 23.58120903 13.75 20.375 C13.5025 19.59125 13.255 18.8075 13 18 C12.34 18 11.68 18 11 18 C8.46093936 15.38626111 7.07743148 13.87110419 6.75 10.1875 C6.8325 9.465625 6.915 8.74375 7 8 C5.68 7.67 4.36 7.34 3 7 C3.33 6.34 3.66 5.68 4 5 C3.34 5 2.68 5 2 5 C2 4.34 2 3.68 2 3 C1.113125 2.87625 0.22625 2.7525 -0.6875 2.625 C-7.90602574 1.26301401 -7.90602574 1.26301401 -10.33984375 -1.546875 C-13.12807058 -3.98739354 -16.03183222 -3.39811715 -19.58203125 -3.30078125 C-22.63171664 -2.92141812 -24.43145539 -1.64650296 -27 0 C-29.98733652 0.54869446 -32.97051933 0.8085949 -36 1 C-36.33 1.99 -36.66 2.98 -37 4 C-39.0625 4.6875 -39.0625 4.6875 -41 5 C-36.95707497 -0.92962338 -32.72835745 -2.80642892 -26 -5 C-24.7625 -5.4125 -23.525 -5.825 -22.25 -6.25 C-13.11290433 -8.35856054 -7.72981807 -4.56761977 0 0 Z " fill="#DBA33D" transform="translate(308,7)"/>
<path d="M0 0 C3.21299706 2.68402803 4.73722257 6.17239762 6.5 9.875 C8.85135884 14.78333198 8.85135884 14.78333198 11.59375 19.48046875 C13.37174062 22.66603528 14.18710351 25.91381303 15 29.4375 C15.16733643 30.13834717 15.33467285 30.83919434 15.50708008 31.5612793 C16.01451504 33.70536728 16.50816853 35.85228608 17 38 C17.29261719 39.24523437 17.58523438 40.49046875 17.88671875 41.7734375 C19.4885492 48.85274672 20.68937661 55.74603015 21 63 C21.03254883 63.66547852 21.06509766 64.33095703 21.09863281 65.01660156 C21.65514494 77.73768183 20.26898864 88.65902272 14.05078125 100.0390625 C12.93761723 102.0554974 12.93761723 102.0554974 11.91796875 104.4609375 C9.0921996 110.75512563 5.73200252 115.07873468 0 119 C-14.39988194 123.79996065 -39.28906024 123.60279482 -53.08203125 117.00390625 C-55.49369716 115.37165461 -56.8046883 113.62093315 -57.67578125 110.8515625 C-58.29078301 107.11185482 -58.23947902 104.62530634 -56.875 101.0625 C-54.73870172 98.7125719 -53.01990039 97.89780822 -50 97 C-50.515625 97.680625 -51.03125 98.36125 -51.5625 99.0625 C-53.42812963 102.87487359 -52.86387733 104.89658267 -52 109 C-51.814375 110.134375 -51.62875 111.26875 -51.4375 112.4375 C-51.293125 113.283125 -51.14875 114.12875 -51 115 C-49.02 115.33 -47.04 115.66 -45 116 C-45 116.66 -45 117.32 -45 118 C-20.91753507 119.80967593 -20.91753507 119.80967593 2 115 C3.86807342 111.59453143 3.86807342 111.59453143 5 108 C6.5625 105.5625 6.5625 105.5625 8 104 C8.66 104 9.32 104 10 104 C9.95875 102.9275 9.9175 101.855 9.875 100.75 C9.99231392 97.23058248 10.21352627 95.87820768 12 93 C12.37125 92.2575 12.7425 91.515 13.125 90.75 C13.41375 90.1725 13.7025 89.595 14 89 C14.66 89 15.32 89 16 89 C16.33 86.03 16.66 83.06 17 80 C16.34 80 15.68 80 15 80 C15 77.69 15 75.38 15 73 C15.66 73.66 16.32 74.32 17 75 C17 71.37 17 67.74 17 64 C16.34 64 15.68 64 15 64 C15.08378906 63.44054687 15.16757812 62.88109375 15.25390625 62.3046875 C17.05901973 49.60734973 17.05901973 49.60734973 13.51171875 38.02734375 C10.77596719 34.35846763 11.12838765 29.65923485 10.72265625 25.21484375 C9.88311964 21.48004035 9.09795005 20.99887225 6 19 C5.28072705 16.68234271 4.6090107 14.34904126 4 12 C3.34 11.67 2.68 11.34 2 11 C1.3671875 8.49609375 1.3671875 8.49609375 0.875 5.4375 C0.62363281 3.91962891 0.62363281 3.91962891 0.3671875 2.37109375 C0.24601562 1.58863281 0.12484375 0.80617187 0 0 Z " fill="#E1A22F" transform="translate(340,176)"/>
<path d="M0 0 C0 0.99 0 1.98 0 3 C-1.65 3.33 -3.3 3.66 -5 4 C-5.33 5.65 -5.66 7.3 -6 9 C-7.98 9 -9.96 9 -12 9 C-11.505 11.475 -11.505 11.475 -11 14 C-11.70125 13.87625 -12.4025 13.7525 -13.125 13.625 C-17.40126335 14.18277348 -19.43186805 16.66456033 -22 20 C-22.69822617 21.65369357 -23.37498605 23.31727014 -24 25 C-24.99 25.33 -25.98 25.66 -27 26 C-29.81435663 31.21950414 -31.86391866 36.90996242 -33.1875 42.6875 C-33.455625 43.780625 -33.72375 44.87375 -34 46 C-34.99 46.495 -34.99 46.495 -36 47 C-36.65213292 49.02463255 -36.65213292 49.02463255 -37 51 C-37.66 51 -38.32 51 -39 51 C-39.00257812 51.58007812 -39.00515625 52.16015625 -39.0078125 52.7578125 C-39.23390716 57.32492457 -39.65154029 60.22857008 -42.9375 63.5625 C-46 66 -46 66 -48 66 C-48.1546875 67.3921875 -48.1546875 67.3921875 -48.3125 68.8125 C-49.03029537 72.14046037 -49.2633029 73.11262269 -52 75 C-53.98723268 75.70381157 -55.98777953 76.3711811 -58 77 C-61.06551356 78.66238996 -61.06551356 78.66238996 -61.9375 81.0625 C-63 83 -63 83 -65.125 83.75 C-65.74375 83.8325 -66.3625 83.915 -67 84 C-67.103125 84.763125 -67.20625 85.52625 -67.3125 86.3125 C-68.08160213 89.31899016 -68.82872825 89.9122387 -71 92 C-72.85310419 95.26146338 -74.0247784 98.09911358 -74.9375 101.75 C-75.288125 102.8225 -75.63875 103.895 -76 105 C-76.98806641 105.36158203 -76.98806641 105.36158203 -77.99609375 105.73046875 C-78.65738281 106.14941406 -79.31867188 106.56835938 -80 107 C-80.57572015 109.61448171 -80.92373508 111.9190571 -81.125 114.5625 C-81.34248928 117.06825415 -81.62931073 119.50814438 -82 122 C-82.99 122.495 -82.99 122.495 -84 123 C-84.21074298 126.55513431 -84.21074298 126.55513431 -83.03125 129.84375 C-81.81869667 132.37908878 -81.59550618 134.4569217 -81.375 137.25 C-81.30023438 138.14203125 -81.22546875 139.0340625 -81.1484375 139.953125 C-81.09945312 140.62859375 -81.05046875 141.3040625 -81 142 C-86.07736535 137.45709416 -87.79467971 134.11292057 -88.2421875 127.328125 C-88.19499299 122.59077229 -86.71425816 118.8476652 -84.8125 114.5625 C-84.49079834 113.81170166 -84.16909668 113.06090332 -83.83764648 112.28735352 C-81.91287996 107.86380099 -79.84469335 103.59564722 -77.37890625 99.4453125 C-76.20274018 97.35953357 -75.13544385 95.26968327 -74.08984375 93.1171875 C-73.7455835 92.41021729 -73.40132324 91.70324707 -73.04663086 90.97485352 C-72.36773087 89.57223696 -71.69497848 88.16662172 -71.02954102 86.75756836 C-68.03772218 80.60700517 -64.6387964 75.63387006 -58.625 72.0625 C-47.79622259 65.07677129 -43.42904449 56.17077301 -38.75 44.375 C-34.03064712 32.83542102 -28.02871823 20.74875798 -19 12 C-17.7625 10.63875 -17.7625 10.63875 -16.5 9.25 C-13.49436062 6.54492456 -10.56849723 4.91169494 -7 3 C-6.071875 2.4225 -5.14375 1.845 -4.1875 1.25 C-2 0 -2 0 0 0 Z " fill="#DFA53A" transform="translate(89,151)"/>
<path d="M0 0 C0 0.66 0 1.32 0 2 C0.66 2 1.32 2 2 2 C1.38029501 11.80843419 1.38029501 11.80843419 -2 16 C-2.66 16 -3.32 16 -4 16 C-4.185625 17.0828125 -4.185625 17.0828125 -4.375 18.1875 C-4.9904931 20.95721894 -5.88444374 23.3970354 -7 26 C-7.66 26 -8.32 26 -9 26 C-8.57534294 18.63927766 -6.01651083 12.67862176 -3 6 C-11.99177021 7.66206473 -20.32687251 10.482379 -28.38671875 14.76953125 C-32.4545996 16.68490116 -36.70484931 17.87045017 -41.01953125 19.10546875 C-43.75989521 19.92793709 -46.36344609 20.89371953 -49 22 C-48.67 20.68 -48.34 19.36 -48 18 C-47.01 18 -46.02 18 -45 18 C-45 17.34 -45 16.68 -45 16 C-43.91460937 15.78085937 -42.82921875 15.56171875 -41.7109375 15.3359375 C-32.82010934 13.91923022 -32.82010934 13.91923022 -25.9375 8.8125 C-23.86421359 6.0596749 -22.88389571 5.98087549 -19.32421875 5.39453125 C-15.54973023 5.09401041 -11.78548834 5.00963229 -8 5 C-8 4.34 -8 3.68 -8 3 C-5.04518508 0.25624329 -4.22528092 0 0 0 Z " fill="#E3A01E" transform="translate(99,246)"/>
<path d="M0 0 C-0.85464844 0.31453125 -1.70929687 0.6290625 -2.58984375 0.953125 C-3.69457031 1.38109375 -4.79929688 1.8090625 -5.9375 2.25 C-7.03964844 2.66765625 -8.14179687 3.0853125 -9.27734375 3.515625 C-12.09771214 4.71851256 -12.09771214 4.71851256 -13.015625 7.015625 C-13.21343409 9.30472949 -13.21343409 9.30472949 -10.8125 11.5 C-9.10159903 13.02080086 -7.37596466 14.52550344 -5.625 16 C-4 18 -4 18 -4.1171875 20.48828125 C-5 23 -5 23 -6.96875 24.29296875 C-9.63681447 25.23584956 -12.29691541 26.16177462 -15 27 C-15.75152344 27.23976563 -16.50304687 27.47953125 -17.27734375 27.7265625 C-25.84121151 30.04949227 -34.14974743 29.01235131 -42 25 C-42 24.67 -42 24.34 -42 24 C-40.35 24 -38.7 24 -37 24 C-37 24.66 -37 25.32 -37 26 C-30.73 26 -24.46 26 -18 26 C-18.33 25.01 -18.66 24.02 -19 23 C-18 21 -18 21 -16 20 C-16.66 18.02 -17.32 16.04 -18 14 C-17.34 14 -16.68 14 -16 14 C-16.226875 13.154375 -16.45375 12.30875 -16.6875 11.4375 C-17.10050507 6.89444426 -16.55605599 4.7975689 -14 1 C-9.33025448 -0.88064837 -4.83746798 -1.52644001 0 0 Z " fill="#EC9D11" transform="translate(50,269)"/>
<path d="M0 0 C0.33 0 0.66 0 1 0 C1 1.65 1 3.3 1 5 C1.99 5.33 2.98 5.66 4 6 C3.67 6.99 3.34 7.98 3 9 C1.5 7.625 1.5 7.625 0 6 C0 5.34 0 4.68 0 4 C-0.99 4 -1.98 4 -3 4 C-2.91878906 4.81082031 -2.83757812 5.62164062 -2.75390625 6.45703125 C-2.2231359 15.76176046 -4.21477938 20.81512924 -10 28 C-10.76054687 28.98613281 -11.52109375 29.97226562 -12.3046875 30.98828125 C-19.17645886 39.27612051 -25.65369215 42.03104375 -36 44 C-31.18099548 39.02036199 -31.18099548 39.02036199 -26.375 38.9375 C-25.26125 38.958125 -24.1475 38.97875 -23 39 C-22.34 37.68 -21.68 36.36 -21 35 C-20.01 35 -19.02 35 -18 35 C-17.67 32.69 -17.34 30.38 -17 28 C-16.34 28 -15.68 28 -15 28 C-15 27.34 -15 26.68 -15 26 C-13.35 25.34 -11.7 24.68 -10 24 C-10.721875 23.401875 -11.44375 22.80375 -12.1875 22.1875 C-14 19 -14 19 -13.59765625 16.21875 C-12.8205078 13.4396385 -11.97076007 10.71717646 -11 8 C-10.67 8.99 -10.34 9.98 -10 11 C-8.68 11 -7.36 11 -6 11 C-6.185625 9.700625 -6.37125 8.40125 -6.5625 7.0625 C-6.87890625 4.84765625 -6.87890625 4.84765625 -7 3 C-6 2 -6 2 -2.9375 1.9375 C-1.4834375 1.9684375 -1.4834375 1.9684375 0 2 C0 1.34 0 0.68 0 0 Z " fill="#F59C10" transform="translate(270,243)"/>
<path d="M0 0 C0 3 0 3 -2.23046875 5.3046875 C-3.20628906 6.15289063 -4.18210937 7.00109375 -5.1875 7.875 C-12.75610976 14.01418053 -12.75610976 14.01418053 -18 22 C-18.66 22 -19.32 22 -20 22 C-20 22.66 -20 23.32 -20 24 C-20.66 24 -21.32 24 -22 24 C-22.66 27.96 -23.32 31.92 -24 36 C-24.66 36 -25.32 36 -26 36 C-26 36.99 -26 37.98 -26 39 C-28.375 41.5625 -28.375 41.5625 -31 44 C-31.66 44.66 -32.32 45.32 -33 46 C-33.99 46 -34.98 46 -36 46 C-36.12375 46.7425 -36.2475 47.485 -36.375 48.25 C-36.97914361 50.90823188 -37.45572303 52.76079839 -39 55 C-41.625 56.25 -41.625 56.25 -44 57 C-42.35249162 52.27836985 -39.83859761 48.26755468 -37.1875 44.0625 C-36.76146484 43.37220703 -36.33542969 42.68191406 -35.89648438 41.97070312 C-33.85724029 38.71593382 -31.78354267 35.64899491 -29.27734375 32.734375 C-27.37297247 30.44782287 -26.30693171 28.93980498 -25.375 26.1875 C-24.694375 24.6096875 -24.694375 24.6096875 -24 23 C-23.01 22.67 -22.02 22.34 -21 22 C-20.29605388 20.68596724 -19.63654342 19.3479743 -19 18 C-16.35435089 14.35082881 -13.53901539 11.76215835 -10 9 C-9.175 8.175 -8.35 7.35 -7.5 6.5 C-5.12324655 4.12324655 -2.65880668 2.05107944 0 0 Z " fill="#DCA833" transform="translate(266,12)"/>
<path d="M0 0 C1.32 0.33 2.64 0.66 4 1 C3.5020163 4.73487777 3.12508244 6.81237635 1 10 C0.72298779 12.85579598 0.53543013 15.63852923 0.4375 18.5 C0.11790445 26.64628666 0.11790445 26.64628666 -1 30 C-1.66 30 -2.32 30 -3 30 C-3.268125 30.78375 -3.53625 31.5675 -3.8125 32.375 C-5 35 -5 35 -8 37 C-8.2502157 40.08365871 -8.2502157 40.08365871 -8 43 C-7.1646875 43.185625 -7.1646875 43.185625 -6.3125 43.375 C-3.77885636 44.05976855 -1.42078968 44.99133763 1 46 C1 46.66 1 47.32 1 48 C8.26 48 15.52 48 23 48 C18.80919551 50.09540225 15.85053572 50.34885487 11.3125 50.3125 C10.59860107 50.30758545 9.88470215 50.3026709 9.14916992 50.29760742 C2.01511303 50.13957708 -3.32127003 48.98226018 -9.125 44.6875 C-11 42 -11 42 -11.1875 39.25 C-10.08183487 36.22396911 -8.91330981 34.33931027 -7.0625 31.75 C-2.27937959 24.91860554 -1.93644561 17.45236731 -1.21875 9.33984375 C-0.92576099 6.20590776 -0.47345453 3.11127261 0 0 Z " fill="#DAA542" transform="translate(211,239)"/>
<path d="M0 0 C1.17949219 0.01804687 2.35898438 0.03609375 3.57421875 0.0546875 C4.92966797 0.08949219 4.92966797 0.08949219 6.3125 0.125 C3.26651253 2.15565831 2.18437319 2.41982404 -1.3125 2.6875 C-4.29864422 2.71477223 -4.29864422 2.71477223 -6.6875 4.125 C-5.759375 4.681875 -4.83125 5.23875 -3.875 5.8125 C0.34600827 8.87480011 1.98841625 11.09947655 2.8125 16.25 C2.3125 19.125 2.3125 19.125 0.13818359 20.77539062 C-4.75005218 23.11012083 -9.73171321 22.63728292 -15.0625 22.625 C-16.17367187 22.65335937 -17.28484375 22.68171875 -18.4296875 22.7109375 C-25.55514709 22.72790288 -29.43573871 22.0507899 -34.6875 17.125 C-37.12943963 13.34393218 -38.08399763 10.61863976 -37.6875 6.125 C-37.419375 6.7025 -37.15125 7.28 -36.875 7.875 C-35.73696754 10.18247896 -35.73696754 10.18247896 -34.0625 12.25 C-32.6875 14.125 -32.6875 14.125 -32.6875 16.125 C-31.883125 16.434375 -31.07875 16.74375 -30.25 17.0625 C-27.6875 18.125 -27.6875 18.125 -26.6875 19.125 C-25.01538603 19.22437434 -23.33912559 19.25580093 -21.6640625 19.2578125 C-20.643125 19.25910156 -19.6221875 19.26039063 -18.5703125 19.26171875 C-17.49523437 19.25785156 -16.42015625 19.25398438 -15.3125 19.25 C-14.24515625 19.25386719 -13.1778125 19.25773437 -12.078125 19.26171875 C-11.05460937 19.26042969 -10.03109375 19.25914062 -8.9765625 19.2578125 C-8.03506348 19.25668457 -7.09356445 19.25555664 -6.12353516 19.25439453 C-3.54690961 19.22561569 -3.54690961 19.22561569 -0.6875 18.125 C-0.59863816 14.92597361 -0.77691469 12.19822544 -1.6875 9.125 C-2.6775 9.125 -3.6675 9.125 -4.6875 9.125 C-4.6875 8.465 -4.6875 7.805 -4.6875 7.125 C-6.0075 6.795 -7.3275 6.465 -8.6875 6.125 C-9.0175 4.805 -9.3475 3.485 -9.6875 2.125 C-6.05554504 -0.29630331 -4.30400652 -0.08522785 0 0 Z " fill="#D29D37" transform="translate(128.6875,266.875)"/>
<path d="M0 0 C0.33 0 0.66 0 1 0 C1.17078675 2.45810923 1.33714902 4.9163607 1.5 7.375 C1.54987061 8.10581787 1.59974121 8.83663574 1.65112305 9.58959961 C1.90905099 13.61034557 1.99367222 17.53297999 1.8125 21.5625 C1.74687887 26.46767956 3.31366882 28.93212706 6 33 C6.495 34.19625 6.99 35.3925 7.5 36.625 C8.98466984 39.96550715 10.6220873 42.25053844 13 45 C14.00573778 46.32901064 15.00795408 47.66073801 16 49 C15.67 49.66 15.34 50.32 15 51 C12.125 50.375 12.125 50.375 9 49 C7.75 45.9375 7.75 45.9375 7 43 C6.34 42.67 5.68 42.34 5 42 C4.03515625 40.36328125 4.03515625 40.36328125 3.0625 38.3125 C2.74410156 37.64863281 2.42570312 36.98476562 2.09765625 36.30078125 C1.73542969 35.54152344 1.37320312 34.78226563 1 34 C0.45730469 33.18273437 -0.08539063 32.36546875 -0.64453125 31.5234375 C-2.71963797 26.12935605 -2.09514578 21.01391756 -1.75 15.3125 C-1.69714844 14.17232422 -1.64429688 13.03214844 -1.58984375 11.85742188 C-1.16506424 3.49519273 -1.16506424 3.49519273 0 0 Z " fill="#DCA432" transform="translate(324,125)"/>
<path d="M0 0 C4.13652303 2.59971333 7.31555113 4.70419771 9.26171875 9.375 C9.26171875 10.035 9.26171875 10.695 9.26171875 11.375 C7.94171875 10.715 6.62171875 10.055 5.26171875 9.375 C5.26171875 8.055 5.26171875 6.735 5.26171875 5.375 C3.28171875 4.715 1.30171875 4.055 -0.73828125 3.375 C-0.73828125 2.715 -0.73828125 2.055 -0.73828125 1.375 C-1.62515625 1.25125 -2.51203125 1.1275 -3.42578125 1 C-10.64430699 -0.36198599 -10.64430699 -0.36198599 -13.078125 -3.171875 C-15.86635183 -5.61239354 -18.77011347 -5.02311715 -22.3203125 -4.92578125 C-25.36999789 -4.54641812 -27.16973664 -3.27150296 -29.73828125 -1.625 C-32.72561777 -1.07630554 -35.70880058 -0.8164051 -38.73828125 -0.625 C-39.06828125 0.365 -39.39828125 1.355 -39.73828125 2.375 C-41.80078125 3.0625 -41.80078125 3.0625 -43.73828125 3.375 C-39.69535622 -2.55462338 -35.4666387 -4.43142892 -28.73828125 -6.625 C-27.50078125 -7.0375 -26.26328125 -7.45 -24.98828125 -7.875 C-14.90434948 -10.20206118 -8.42548458 -5.00000226 0 0 Z " fill="#DFA437" transform="translate(310.73828125,8.625)"/>
<path d="M0 0 C0.66 0 1.32 0 2 0 C0.375 7.75 0.375 7.75 -3 10 C-3.33 10.99 -3.66 11.98 -4 13 C-5.890625 13.9140625 -5.890625 13.9140625 -8.25 14.625 C-9.05824219 14.87121094 -9.86648437 15.11742188 -10.69921875 15.37109375 C-13.11799485 16.03225326 -15.52364616 16.60058809 -18 17 C-18 17.99 -18 18.98 -18 20 C-18.78375 20.226875 -19.5675 20.45375 -20.375 20.6875 C-23.21875 21.78125 -23.21875 21.78125 -24.3125 24.625 C-24.539375 25.40875 -24.76625 26.1925 -25 27 C-25.99 26.67 -26.98 26.34 -28 26 C-28.12375 26.639375 -28.2475 27.27875 -28.375 27.9375 C-28.58125 28.618125 -28.7875 29.29875 -29 30 C-29.66 30.33 -30.32 30.66 -31 31 C-31.268125 31.94875 -31.53625 32.8975 -31.8125 33.875 C-33.2432995 37.64026185 -34.4593593 38.27285819 -38 40 C-38.99 40.66 -39.98 41.32 -41 42 C-39.46906263 36.55666714 -35.70981396 33.07174703 -32 29 C-30.85324069 27.64661739 -29.70739136 26.29246316 -28.5625 24.9375 C-23.35785257 19.02418406 -18.20803337 14.38228853 -11.02734375 11.09765625 C-6.36872531 8.57535994 -1.6960138 5.08804141 0 0 Z " fill="#E1AB42" transform="translate(221,71)"/>
<path d="M0 0 C0.99 0.33 1.98 0.66 3 1 C3 1.66 3 2.32 3 3 C2.40832031 3.12117187 1.81664062 3.24234375 1.20703125 3.3671875 C0.41683594 3.53476563 -0.37335938 3.70234375 -1.1875 3.875 C-1.96480469 4.03742188 -2.74210937 4.19984375 -3.54296875 4.3671875 C-6.00361536 4.92417066 -6.00361536 4.92417066 -8.1875 6 C-12.31484783 7.46750145 -16.46791955 7.72974361 -20.8125 8.125 C-21.69615234 8.21136719 -22.57980469 8.29773438 -23.49023438 8.38671875 C-25.65952058 8.59778444 -27.82968458 8.79979426 -30 9 C-30.12117187 9.6199585 -30.24234375 10.23991699 -30.3671875 10.87866211 C-30.53476563 11.69085205 -30.70234375 12.50304199 -30.875 13.33984375 C-31.03742188 14.14542725 -31.19984375 14.95101074 -31.3671875 15.78100586 C-32.20906757 18.73310771 -33.52611731 20.22189682 -36 22 C-36.66 22 -37.32 22 -38 22 C-36 18 -36 18 -34.875 16.25 C-33.53839513 12.81301605 -33.87761816 9.67145533 -34 6 C-30.57310364 4.85770121 -28.38897782 5.09138924 -24.8125 5.4375 C-23.18248047 5.59025391 -23.18248047 5.59025391 -21.51953125 5.74609375 C-20.68808594 5.82988281 -19.85664063 5.91367188 -19 6 C-19.33 5.01 -19.66 4.02 -20 3 C-16.37 3 -12.74 3 -9 3 C-9 2.34 -9 1.68 -9 1 C-6.01002175 -0.49498913 -3.29957225 -0.11577446 0 0 Z " fill="#DB9E2F" transform="translate(208,236)"/>
<path d="M0 0 C0.66 0.33 1.32 0.66 2 1 C-0.91627155 5.37440732 -4.1439326 5.30230934 -9.12109375 6.38671875 C-14.00571786 7.15901078 -18.8499826 7.42631572 -23.79345703 7.44580078 C-25.98350089 7.45958988 -25.98350089 7.45958988 -29 8 C-30.54369224 9.9093158 -30.54369224 9.9093158 -31 12 C-32.45792884 12.05399736 -33.91642712 12.09279177 -35.375 12.125 C-36.18710938 12.14820313 -36.99921875 12.17140625 -37.8359375 12.1953125 C-40 12 -40 12 -42 10 C-30.85126384 4.35015691 -20.74691298 2.85999637 -8.3828125 2.34375 C-5.17742334 2.01802916 -2.94083291 1.22271189 0 0 Z " fill="#E8A020" transform="translate(131,140)"/>
<path d="M0 0 C0.99 0.33 1.98 0.66 3 1 C2.67386719 1.58007812 2.34773438 2.16015625 2.01171875 2.7578125 C1.57472656 3.53898438 1.13773438 4.32015625 0.6875 5.125 C0.22859375 5.94226563 -0.2303125 6.75953125 -0.703125 7.6015625 C-1.74238635 9.52356993 -2.67178742 11.50480382 -3.5625 13.5 C-5 16 -5 16 -7.1875 16.875 C-7.785625 16.91625 -8.38375 16.9575 -9 17 C-9.33 16.01 -9.66 15.02 -10 14 C-10.268125 14.61875 -10.53625 15.2375 -10.8125 15.875 C-12 18 -12 18 -15 20 C-15.36162029 21.32594105 -15.69728039 22.65938457 -16 24 C-16.66 24.33 -17.32 24.66 -18 25 C-18.33 25.99 -18.66 26.98 -19 28 C-19.66 28 -20.32 28 -21 28 C-20.49289581 23.63890395 -19.63658349 20.54924701 -17 17 C-16.01 16.67 -15.02 16.34 -14 16 C-13.731875 15.278125 -13.46375 14.55625 -13.1875 13.8125 C-11.62807717 10.11913014 -9.30625151 7.30172055 -6 5 C-4.68 5 -3.36 5 -2 5 C-2 3.68 -2 2.36 -2 1 C-1.34 0.67 -0.68 0.34 0 0 Z " fill="#F2A623" transform="translate(79,159)"/>
<path d="M0 0 C3.21299706 2.68402803 4.73722257 6.17239762 6.5 9.875 C8.84369465 14.77315543 8.84369465 14.77315543 11.58984375 19.453125 C13.42911604 22.77502398 14.22891827 26.20449608 15.0625 29.875 C15.38555742 31.24766967 15.70976802 32.62006847 16.03515625 33.9921875 C16.19145508 34.66080811 16.34775391 35.32942871 16.50878906 36.01831055 C16.98703452 37.94769342 17.549185 39.85566722 18.11328125 41.76171875 C19.08173426 45.29849208 19.1489704 48.3502251 19 52 C18.34 52 17.68 52 17 52 C16.89042969 51.18015625 16.78085937 50.3603125 16.66796875 49.515625 C16.50941406 48.43796875 16.35085938 47.3603125 16.1875 46.25 C16.03667969 45.18265625 15.88585937 44.1153125 15.73046875 43.015625 C15.22055586 40.00829451 15.22055586 40.00829451 13.484375 38.05078125 C10.80015801 34.34232356 11.12898575 29.66578647 10.72265625 25.21484375 C9.88311964 21.48004035 9.09795005 20.99887225 6 19 C5.28072705 16.68234271 4.6090107 14.34904126 4 12 C3.34 11.67 2.68 11.34 2 11 C1.3671875 8.49609375 1.3671875 8.49609375 0.875 5.4375 C0.70742188 4.42558594 0.53984375 3.41367188 0.3671875 2.37109375 C0.24601562 1.58863281 0.12484375 0.80617187 0 0 Z " fill="#D4A041" transform="translate(340,176)"/>
<path d="M0 0 C0 0.99 0 1.98 0 3 C-1.65 3.33 -3.3 3.66 -5 4 C-5.33 5.65 -5.66 7.3 -6 9 C-7.98 9 -9.96 9 -12 9 C-11.67 10.65 -11.34 12.3 -11 14 C-11.70125 13.87625 -12.4025 13.7525 -13.125 13.625 C-17.40126335 14.18277348 -19.43186805 16.66456033 -22 20 C-22.69822617 21.65369357 -23.37498605 23.31727014 -24 25 C-24.99 25.33 -25.98 25.66 -27 26 C-28.70855022 29.00007271 -28.70855022 29.00007271 -30 32 C-30.66 32 -31.32 32 -32 32 C-28.81072894 23.42302831 -23.97487817 16.21858037 -16.8359375 10.48828125 C-14.79306461 8.90317494 -14.79306461 8.90317494 -12.5 6.3125 C-9.18681281 3.24780184 -4.68550715 0 0 0 Z " fill="#E5AE4D" transform="translate(89,151)"/>
<path d="M0 0 C1.67830848 3.35661695 0.6353188 6.36135594 0 10 C-0.99 10.495 -0.99 10.495 -2 11 C-2.21074298 14.55513431 -2.21074298 14.55513431 -1.03125 17.84375 C0.18130333 20.37908878 0.40449382 22.4569217 0.625 25.25 C0.69976563 26.14203125 0.77453125 27.0340625 0.8515625 27.953125 C0.90054687 28.62859375 0.94953125 29.3040625 1 30 C-4.12545442 25.4140671 -5.69574097 22.04259026 -6.375 15.25 C-6.2568289 10.15879517 -4.38043661 5.45680284 -2 1 C-1.34 0.67 -0.68 0.34 0 0 Z " fill="#DCA338" transform="translate(7,263)"/>
<path d="M0 0 C0.66 0.33 1.32 0.66 2 1 C1.78125 3.36328125 1.78125 3.36328125 1 6 C-2.04738093 8.00135533 -5.53012722 8.92399393 -9 10 C-9.75152344 10.23976563 -10.50304687 10.47953125 -11.27734375 10.7265625 C-19.84121151 13.04949227 -28.14974743 12.01235131 -36 8 C-36 7.67 -36 7.34 -36 7 C-34.35 7 -32.7 7 -31 7 C-31 7.66 -31 8.32 -31 9 C-24.73 9 -18.46 9 -12 9 C-12.33 8.01 -12.66 7.02 -13 6 C-12.67 5.34 -12.34 4.68 -12 4 C-10.68 4.33 -9.36 4.66 -8 5 C-8 5.66 -8 6.32 -8 7 C-5.36 6.34 -2.72 5.68 0 5 C0 3.35 0 1.7 0 0 Z " fill="#D59E39" transform="translate(44,286)"/>
<path d="M0 0 C-1.32 0.33 -2.64 0.66 -4 1 C-4 1.99 -4 2.98 -4 4 C-7 6 -7 6 -10 6 C-10.33 6.66 -10.66 7.32 -11 8 C-11.99 8.33 -12.98 8.66 -14 9 C-15.50014391 10.33289654 -15.50014391 10.33289654 -17 12 C-18.29355827 13.37195574 -19.62298702 14.71182656 -21 16 C-21.66 16 -22.32 16 -23 16 C-23.061875 16.598125 -23.12375 17.19625 -23.1875 17.8125 C-24.33938899 20.91373958 -26.06759592 21.64108103 -29 23 C-29.66 22.67 -30.32 22.34 -31 22 C-29.85091127 20.85091127 -28.70148955 19.70215437 -27.55078125 18.5546875 C-26.4804957 17.48170602 -25.41571044 16.40321968 -24.35546875 15.3203125 C-20.90186458 11.81213671 -17.36343397 8.50790302 -13.578125 5.359375 C-11.95508225 4.00143734 -11.95508225 4.00143734 -10.4140625 2.37109375 C-7.49316097 -0.4610511 -3.86664667 -0.10740685 0 0 Z " fill="#E79E1F" transform="translate(281,7)"/>
<path d="M0 0 C1.56902561 3.13805122 0.56136446 6.26618588 0.0625 9.625 C-0.03740234 10.33140625 -0.13730469 11.0378125 -0.24023438 11.765625 C-0.48791959 13.51121607 -0.74323871 15.25572084 -1 17 C-3.31 17.66 -5.62 18.32 -8 19 C-8.66 22.96 -9.32 26.92 -10 31 C-10.33 29.68 -10.66 28.36 -11 27 C-11.66 27 -12.32 27 -13 27 C-13 24.69 -13 22.38 -13 20 C-12.34 20 -11.68 20 -11 20 C-10.67 18.68 -10.34 17.36 -10 16 C-9.67 16.33 -9.34 16.66 -9 17 C-7.33382885 17.04063832 -5.66611905 17.042721 -4 17 C-4.20625 16.484375 -4.4125 15.96875 -4.625 15.4375 C-5.15887026 11.96734329 -4.07676761 9.29364209 -3 6 C-2.34 6 -1.68 6 -1 6 C-1.020625 5.195625 -1.04125 4.39125 -1.0625 3.5625 C-1 1 -1 1 0 0 Z " fill="#EB9D18" transform="translate(333,106)"/>
<path d="M0 0 C1.17949219 0.01804687 2.35898438 0.03609375 3.57421875 0.0546875 C4.92966797 0.08949219 4.92966797 0.08949219 6.3125 0.125 C3.26651253 2.15565831 2.18437319 2.41982404 -1.3125 2.6875 C-4.29864422 2.71477223 -4.29864422 2.71477223 -6.6875 4.125 C-5.759375 4.681875 -4.83125 5.23875 -3.875 5.8125 C-0.66045936 8.14461772 0.76546521 9.51525215 2.3125 13.125 C2.5 16.4375 2.5 16.4375 2.3125 19.125 C0.6625 19.785 -0.9875 20.445 -2.6875 21.125 C-3.0175 20.465 -3.3475 19.805 -3.6875 19.125 C-2.6975 18.795 -1.7075 18.465 -0.6875 18.125 C-0.59863816 14.92597361 -0.77691469 12.19822544 -1.6875 9.125 C-2.6775 9.125 -3.6675 9.125 -4.6875 9.125 C-4.6875 8.465 -4.6875 7.805 -4.6875 7.125 C-6.0075 6.795 -7.3275 6.465 -8.6875 6.125 C-9.0175 4.805 -9.3475 3.485 -9.6875 2.125 C-6.05554504 -0.29630331 -4.30400652 -0.08522785 0 0 Z " fill="#D29D3B" transform="translate(128.6875,266.875)"/>
<path d="M0 0 C0.33 0.99 0.66 1.98 1 3 C0.0479279 4.00596297 -0.91187346 5.00461563 -1.875 6 C-2.40867187 6.556875 -2.94234375 7.11375 -3.4921875 7.6875 C-5 9 -5 9 -7 9 C-7.103125 9.928125 -7.20625 10.85625 -7.3125 11.8125 C-8.00841257 15.03900374 -8.29607863 16.19738575 -11 18 C-12.32 18 -13.64 18 -15 18 C-14.505 16.515 -14.505 16.515 -14 15 C-13.34 15 -12.68 15 -12 15 C-11.95875 14.319375 -11.9175 13.63875 -11.875 12.9375 C-10.30721871 7.67423423 -6.61200105 4.08634853 -2.125 1.0625 C-1.42375 0.711875 -0.7225 0.36125 0 0 Z " fill="#E0A62F" transform="translate(48,208)"/>
<path d="M0 0 C2.0625 0.4375 2.0625 0.4375 4 1 C-2.24679981 4.56959989 -8.57440933 6.35547197 -15.51171875 8.0703125 C-18.91580791 8.89871837 -18.91580791 8.89871837 -21.71875 10.109375 C-24.85003139 11.33186157 -27.67465834 11.13040556 -31 11 C-31 10.67 -31 10.34 -31 10 C-29.35 10 -27.7 10 -26 10 C-25.67 9.01 -25.34 8.02 -25 7 C-22.19140625 6.15625 -22.19140625 6.15625 -18.5625 5.5 C-8.65828742 4.2282264 -8.65828742 4.2282264 0 0 Z " fill="#DEA338" transform="translate(166,258)"/>
<path d="M0 0 C-5.75178353 2.00643612 -11.2304092 2.3795175 -17.3046875 2.65625 C-18.63886719 2.82640625 -18.63886719 2.82640625 -20 3 C-21.28120517 5.17715452 -21.28120517 5.17715452 -20.9375 8.6875 C-20.86947707 12.8217823 -21.69654389 16.08963168 -23 20 C-25.60582371 20.93065133 -26.64198224 21.14917407 -29.25 20.0625 C-30.11625 19.5365625 -30.11625 19.5365625 -31 19 C-27.535 18.505 -27.535 18.505 -24 18 C-23.93941406 16.94039062 -23.87882812 15.88078125 -23.81640625 14.7890625 C-23.73199873 13.40102779 -23.64735083 12.01300768 -23.5625 10.625 C-23.52318359 9.92632812 -23.48386719 9.22765625 -23.44335938 8.5078125 C-23.11328125 3.2265625 -23.11328125 3.2265625 -22 1 C-19.04264911 0.49277131 -16.1667598 0.11019521 -13.1875 -0.1875 C-12.36701172 -0.28224609 -11.54652344 -0.37699219 -10.70117188 -0.47460938 C-6.82505198 -0.88642747 -3.77759943 -1.12747469 0 0 Z " fill="#DAAA4D" transform="translate(356,105)"/>
<path d="M0 0 C0 3 0 3 -2.23046875 5.3046875 C-3.20628906 6.15289063 -4.18210937 7.00109375 -5.1875 7.875 C-12.75610976 14.01418053 -12.75610976 14.01418053 -18 22 C-18.66 22 -19.32 22 -20 22 C-20 22.66 -20 23.32 -20 24 C-20.66 24 -21.32 24 -22 24 C-22.33 24.66 -22.66 25.32 -23 26 C-23.66 26 -24.32 26 -25 26 C-24.34 24.68 -23.68 23.36 -23 22 C-22.34 22 -21.68 22 -21 22 C-20.7525 21.443125 -20.505 20.88625 -20.25 20.3125 C-17.64764385 15.49814111 -14.26994771 12.33264211 -10 9 C-8.7625 7.7625 -8.7625 7.7625 -7.5 6.5 C-5.12324655 4.12324655 -2.65880668 2.05107944 0 0 Z " fill="#DEAC48" transform="translate(266,12)"/>
<path d="M0 0 C0.66 0 1.32 0 2 0 C-1.22109012 6.90453767 -5.37321307 11.76578902 -12.625 14.4375 C-16.05156292 15.53223285 -19.46446233 16.34267079 -23 17 C-18.18099548 12.02036199 -18.18099548 12.02036199 -13.375 11.9375 C-12.26125 11.958125 -11.1475 11.97875 -10 12 C-9.34 10.68 -8.68 9.36 -8 8 C-7.01 8 -6.02 8 -5 8 C-5 6.68 -5 5.36 -5 4 C-4.01 4 -3.02 4 -2 4 C-2 3.34 -2 2.68 -2 2 C-1.34 2 -0.68 2 0 2 C0 1.34 0 0.68 0 0 Z " fill="#DDA53A" transform="translate(257,270)"/>
<path d="M0 0 C0.33 0 0.66 0 1 0 C1.66433182 9.34809779 2.1598655 18.62122392 2 28 C1.01 27.34 0.02 26.68 -1 26 C-1.35644531 23.70922852 -1.35644531 23.70922852 -1.328125 20.87890625 C-1.32296875 19.86119141 -1.3178125 18.84347656 -1.3125 17.79492188 C-1.291875 16.72822266 -1.27125 15.66152344 -1.25 14.5625 C-1.24484375 13.49966797 -1.2396875 12.43683594 -1.234375 11.34179688 C-1.15464979 3.46394936 -1.15464979 3.46394936 0 0 Z " fill="#DCA43C" transform="translate(324,125)"/>
<path d="M0 0 C1.16638493 3.4991548 0.600655 4.93917816 -0.9140625 8.21875 C-3.0176487 11.66923672 -6.00955414 14.29478962 -9.86328125 15.66015625 C-12.44057135 16.07007259 -14.66112294 15.86907755 -17.25 15.5625 C-18.58804687 15.40974609 -18.58804687 15.40974609 -19.953125 15.25390625 C-20.62859375 15.17011719 -21.3040625 15.08632813 -22 15 C-18.53651382 12.69100922 -16.59661804 12.66772476 -12.5 12.3125 C-9.03802567 11.91176688 -9.03802567 11.91176688 -6 11 C-3.69981499 7.74520441 -3.69981499 7.74520441 -3 4 C-1.3125 1.5625 -1.3125 1.5625 0 0 Z " fill="#E1A02C" transform="translate(348,280)"/>
<path d="M0 0 C1 3 1 3 -0.14453125 5.671875 C-0.69496094 6.68765625 -1.24539062 7.7034375 -1.8125 8.75 C-3.62455947 12.19083017 -5.26712949 15.32471383 -6.125 19.125 C-7 22 -7 22 -9.0625 23.125 C-9.701875 23.41375 -10.34125 23.7025 -11 24 C-11.65555119 26.52733235 -11.65555119 26.52733235 -12 29 C-12.66 29.33 -13.32 29.66 -14 30 C-12.8356142 25.02489703 -11.06468645 21.09695926 -8.5078125 16.6875 C-6.62107803 13.32461576 -4.90136833 9.89090771 -3.1875 6.4375 C-2.71630737 5.48895142 -2.71630737 5.48895142 -2.2355957 4.52124023 C-1.48877556 3.01496305 -0.74414896 1.50759862 0 0 Z " fill="#D8AC59" transform="translate(20,234)"/>
<path d="M0 0 C1.26026798 2.52053595 0.91874445 3.8542098 0.5625 6.625 C0.46066406 7.44226562 0.35882813 8.25953125 0.25390625 9.1015625 C0.17011719 9.72804688 0.08632812 10.35453125 0 11 C-0.66 11 -1.32 11 -2 11 C-2 11.99 -2 12.98 -2 14 C-4.5 15.6875 -4.5 15.6875 -7 17 C-7.49515117 10.68682259 -7.49515117 10.68682259 -5.0625 7.3125 C-4.381875 6.549375 -3.70125 5.78625 -3 5 C-2.63215869 3.6757713 -2.28797019 2.34386088 -2 1 C-1.34 0.67 -0.68 0.34 0 0 Z " fill="#ECA011" transform="translate(242,37)"/>
<path d="M0 0 C-0.85464844 0.31453125 -1.70929687 0.6290625 -2.58984375 0.953125 C-3.69457031 1.38109375 -4.79929687 1.8090625 -5.9375 2.25 C-7.59072266 2.87648438 -7.59072266 2.87648438 -9.27734375 3.515625 C-12.09419071 4.71923374 -12.09419071 4.71923374 -13.0234375 7.00390625 C-13.21006649 9.3386757 -13.21006649 9.3386757 -10.6875 11.6875 C-8.24603254 13.97881295 -8.24603254 13.97881295 -6 15 C-6 15.66 -6 16.32 -6 17 C-13.25806452 14.90322581 -13.25806452 14.90322581 -15 12 C-15.4443583 8.06660615 -15.25350881 4.76052642 -14 1 C-12.41913952 0.63495397 -10.83516093 0.28339494 -9.25 -0.0625 C-8.36828125 -0.25972656 -7.4865625 -0.45695312 -6.578125 -0.66015625 C-4.01320972 -0.99825872 -2.42908361 -0.81158635 0 0 Z " fill="#E1A632" transform="translate(50,269)"/>
<path d="M0 0 C0.99 0.33 1.98 0.66 3 1 C3 1.66 3 2.32 3 3 C-4.41430591 4.83717315 -11.37685526 5.23576736 -19 5 C-19.33 4.34 -19.66 3.68 -20 3 C-16.37 3 -12.74 3 -9 3 C-9 2.34 -9 1.68 -9 1 C-6.01002175 -0.49498913 -3.29957225 -0.11577446 0 0 Z " fill="#E9A217" transform="translate(208,236)"/>
<path d="M0 0 C0.99 0 1.98 0 3 0 C4.85776765 3.13498292 5.20140476 5.37471432 5 9 C0.04897143 11.9167669 -5.03204585 11.32959338 -10.625 11.3125 C-11.6871875 11.32861328 -12.749375 11.34472656 -13.84375 11.36132812 C-15.36355469 11.36229492 -15.36355469 11.36229492 -16.9140625 11.36328125 C-17.8417041 11.36626221 -18.7693457 11.36924316 -19.72509766 11.37231445 C-20.85117432 11.1880188 -20.85117432 11.1880188 -22 11 C-22.66 10.01 -23.32 9.02 -24 8 C-23.22398438 8.16371094 -22.44796875 8.32742188 -21.6484375 8.49609375 C-16.9507922 9.144912 -12.35986339 9.10640387 -7.625 9.0625 C-6.23474609 9.05573242 -6.23474609 9.05573242 -4.81640625 9.04882812 C-2.54420291 9.03711574 -0.27213612 9.02071372 2 9 C3.40096246 5.92757947 3.40096246 5.92757947 1.5625 2.8125 C1.046875 1.884375 0.53125 0.95625 0 0 Z " fill="#ED9F1B" transform="translate(124,276)"/>
<path d="M0 0 C1.32 0.33 2.64 0.66 4 1 C-1.49358171 5.76235411 -6.32079492 5.4866572 -13.375 5.25 C-14.39722656 5.23195313 -15.41945312 5.21390625 -16.47265625 5.1953125 C-18.98274749 5.14839491 -21.49087764 5.08276729 -24 5 C-24 4.34 -24 3.68 -24 3 C-16.08 2.67 -8.16 2.34 0 2 C0 1.34 0 0.68 0 0 Z " fill="#EF9C15" transform="translate(236,282)"/>
<path d="M0 0 C3.22216123 2.71496918 4.89470407 6.23836058 6.75 9.9375 C7.07871094 10.55818359 7.40742188 11.17886719 7.74609375 11.81835938 C10.0702249 16.4224926 10.0702249 16.4224926 9.703125 19.44140625 C9.35507812 20.21291016 9.35507812 20.21291016 9 21 C5.12328873 18.41552582 5.19213805 16.37117286 4 12 C3.34 11.67 2.68 11.34 2 11 C1.3671875 8.49609375 1.3671875 8.49609375 0.875 5.4375 C0.70742188 4.42558594 0.53984375 3.41367188 0.3671875 2.37109375 C0.24601562 1.58863281 0.12484375 0.80617187 0 0 Z " fill="#DBA331" transform="translate(340,176)"/>
<path d="M0 0 C1.32 0.33 2.64 0.66 4 1 C3.5020163 4.73487777 3.12508244 6.81237635 1 10 C0.72298779 12.85579598 0.53543013 15.63852923 0.4375 18.5 C0.11790445 26.64628666 0.11790445 26.64628666 -1 30 C-1.66 29.67 -2.32 29.34 -3 29 C-2.505 27.515 -2.505 27.515 -2 26 C-1.95571559 24.64655763 -1.96069412 23.2910961 -2 21.9375 C-2.08402638 14.55518211 -1.10876825 7.28619138 0 0 Z " fill="#DE9F32" transform="translate(211,239)"/>
<path d="M0 0 C0.33 0 0.66 0 1 0 C1 1.65 1 3.3 1 5 C0.01 4.67 -0.98 4.34 -2 4 C-2.12375 4.639375 -2.2475 5.27875 -2.375 5.9375 C-2.58125 6.618125 -2.7875 7.29875 -3 8 C-3.99 8.495 -3.99 8.495 -5 9 C-5.268125 9.94875 -5.53625 10.8975 -5.8125 11.875 C-7.2432995 15.64026185 -8.4593593 16.27285819 -12 18 C-12.99 18.66 -13.98 19.32 -15 20 C-13.47017902 14.56063651 -9.70303382 11.07180067 -6 7 C-4.8708831 5.67015121 -3.74554702 4.33707784 -2.625 3 C-1.75875 2.01 -0.8925 1.02 0 0 Z " fill="#E5B04B" transform="translate(195,93)"/>
<path d="M0 0 C1.32 0 2.64 0 4 0 C2.18690997 3.77727089 0.0926741 7.37269822 -2 11 C-2.99 10.67 -3.98 10.34 -5 10 C-5 10.66 -5 11.32 -5 12 C-5.66 12 -6.32 12 -7 12 C-7 12.66 -7 13.32 -7 14 C-7.66 14 -8.32 14 -9 14 C-9 13.01 -9 12.02 -9 11 C-8.34 11 -7.68 11 -7 11 C-7 10.34 -7 9.68 -7 9 C-5.35 8.34 -3.7 7.68 -2 7 C-2 5.35 -2 3.7 -2 2 C-1.34 2 -0.68 2 0 2 C0 1.34 0 0.68 0 0 Z " fill="#E1A524" transform="translate(262,260)"/>
<path d="M0 0 C8.15384615 2.25641026 8.15384615 2.25641026 11.0625 4.8125 C12.2757829 7.64349343 12.20768405 9.95396725 12 13 C10.68 13.33 9.36 13.66 8 14 C8.165 12.96875 8.33 11.9375 8.5 10.875 C8.4089901 7.04385581 8.4089901 7.04385581 6.21875 5.234375 C4.75579718 4.17321908 3.26578825 3.14827223 1.75 2.1640625 C1.1725 1.77992188 0.595 1.39578125 0 1 C0 0.67 0 0.34 0 0 Z " fill="#DDA840" transform="translate(282,259)"/>
<path d="M0 0 C0 0.33 0 0.66 0 1 C-0.969375 1.28875 -1.93875 1.5775 -2.9375 1.875 C-6.10664203 2.64214682 -6.10664203 2.64214682 -7 5 C-3.70039859 6.6498007 -0.00872116 6.38258361 3.625 6.5625 C4.82769531 6.62727539 4.82769531 6.62727539 6.0546875 6.69335938 C8.0362511 6.79951457 10.01810271 6.90026855 12 7 C12 7.33 12 7.66 12 8 C8.8765076 8.25427918 5.75153179 8.47412319 2.625 8.6875 C1.29082031 8.79674805 1.29082031 8.79674805 -0.0703125 8.90820312 C-0.92109375 8.96298828 -1.771875 9.01777344 -2.6484375 9.07421875 C-3.43395996 9.13182373 -4.21948242 9.18942871 -5.02880859 9.2487793 C-5.67930176 9.16668213 -6.32979492 9.08458496 -7 9 C-9.1519437 5.77208445 -9.20086443 4.71599191 -9 1 C-5.8035914 -0.06546953 -3.34252724 -0.07427838 0 0 Z " fill="#E09E29" transform="translate(339,49)"/>
<path d="M0 0 C1.83333333 0.45833333 3.66666667 0.91666667 5.5 1.375 C7.13195312 1.78298828 7.13195312 1.78298828 8.796875 2.19921875 C12.7734375 3.19335938 12.7734375 3.19335938 16.75 4.1875 C17.8225 4.455625 18.895 4.72375 20 5 C20 4.34 20 3.68 20 3 C21.65 3 23.3 3 25 3 C25 3.66 25 4.32 25 5 C18.94932758 6.76070375 12.07663119 6.62043498 6 5 C6 4.34 6 3.68 6 3 C4.35 3 2.7 3 1 3 C0.67 2.01 0.34 1.02 0 0 Z " fill="#E89D1C" transform="translate(7,290)"/>
<path d="M0 0 C0.33 0.99 0.66 1.98 1 3 C0.67 3.33 0.34 3.66 0 4 C0.0825 4.928125 0.165 5.85625 0.25 6.8125 C0 10 0 10 -2.375 12.1875 C-3.24125 12.785625 -4.1075 13.38375 -5 14 C-5.66 14.99 -6.32 15.98 -7 17 C-7.78287497 10.89357521 -5.10825151 6.99540421 -2 2 C-1.34 2 -0.68 2 0 2 C0 1.34 0 0.68 0 0 Z " fill="#EA9D1C" transform="translate(21,238)"/>
<path d="M0 0 C0.721875 0.144375 1.44375 0.28875 2.1875 0.4375 C4.01846894 0.80369379 5.8517708 1.15846899 7.6875 1.5 C10 2 10 2 12 3 C12.72693904 4.97888961 13.39816251 6.97954558 14 9 C7.99909408 7.77532532 4.2499944 5.43084522 0 1 C0 0.67 0 0.34 0 0 Z " fill="#EC9D0E" transform="translate(274,252)"/>
<path d="M0 0 C0.66 0 1.32 0 2 0 C0.375 7.75 0.375 7.75 -3 10 C-3.33 10.99 -3.66 11.98 -4 13 C-5.84765625 13.73046875 -5.84765625 13.73046875 -8.0625 14.1875 C-8.79597656 14.34605469 -9.52945313 14.50460938 -10.28515625 14.66796875 C-10.85105469 14.77753906 -11.41695312 14.88710937 -12 15 C-10.37660195 13.29115995 -8.70680947 11.62553283 -7 10 C-6.34 10 -5.68 10 -5 10 C-4.731875 9.278125 -4.46375 8.55625 -4.1875 7.8125 C-3.00098638 5.00233617 -1.72514361 2.51583443 0 0 Z " fill="#E5A330" transform="translate(221,71)"/>
<path d="M0 0 C1.18467102 3.55401306 0.71128064 4.83301011 -0.3125 8.375 C-0.57675781 9.31085938 -0.84101562 10.24671875 -1.11328125 11.2109375 C-1.95807877 13.86814203 -2.92863272 16.42684714 -4 19 C-4.66 19 -5.32 19 -6 19 C-5.59524765 11.84937514 -3.17476348 6.37295696 0 0 Z " fill="#DDA846" transform="translate(96,253)"/>
<path d="M0 0 C0.66 0.33 1.32 0.66 2 1 C0 4 0 4 -2.4453125 4.68359375 C-7.26418997 5.1125268 -12.04002965 5.10508443 -16.875 5.0625 C-17.84953125 5.05798828 -18.8240625 5.05347656 -19.828125 5.04882812 C-22.21881434 5.03710906 -24.6093744 5.02070219 -27 5 C-27 4.67 -27 4.34 -27 4 C-26.35973877 3.9498877 -25.71947754 3.89977539 -25.05981445 3.84814453 C-22.14332584 3.61524793 -19.22797522 3.37024399 -16.3125 3.125 C-15.30509766 3.04636719 -14.29769531 2.96773437 -13.25976562 2.88671875 C-12.28330078 2.80292969 -11.30683594 2.71914062 -10.30078125 2.6328125 C-8.95753784 2.52283936 -8.95753784 2.52283936 -7.5871582 2.41064453 C-4.92335773 2.08831317 -4.92335773 2.08831317 -2.29370117 0.89794922 C-1.53677979 0.60162598 -0.7798584 0.30530273 0 0 Z " fill="#E6B44E" transform="translate(131,140)"/>
<path d="M0 0 C0.33 1.32 0.66 2.64 1 4 C-0.32 4 -1.64 4 -3 4 C-3 4.66 -3 5.32 -3 6 C-3.66 6 -4.32 6 -5 6 C-5.185625 6.78375 -5.37125 7.5675 -5.5625 8.375 C-7 11 -7 11 -10.625 12.3125 C-11.73875 12.539375 -12.8525 12.76625 -14 13 C-9.7782869 7.83529257 -5.58162496 3.7210833 0 0 Z " fill="#E7AB41" transform="translate(179,113)"/>
<path d="M0 0 C3.3 0 6.6 0 10 0 C4.83882474 5.16117526 -1.42044955 5.05431818 -8.375 5.0625 C-10.25004775 5.04653244 -12.12508307 5.02730462 -14 5 C-14 4.67 -14 4.34 -14 4 C-13.24074219 3.93941406 -12.48148437 3.87882812 -11.69921875 3.81640625 C-10.70535156 3.73261719 -9.71148437 3.64882812 -8.6875 3.5625 C-7.20830078 3.44068359 -7.20830078 3.44068359 -5.69921875 3.31640625 C-2.90624401 3.08187441 -2.90624401 3.08187441 0 2 C0 1.34 0 0.68 0 0 Z " fill="#E39C1E" transform="translate(348,101)"/>
<path d="M0 0 C0.66 0.33 1.32 0.66 2 1 C1.9375 3.3125 1.9375 3.3125 1 6 C-3.42048711 8.51361032 -6.94351834 9.36998646 -12 9 C-12.33 8.01 -12.66 7.02 -13 6 C-12.67 5.34 -12.34 4.68 -12 4 C-10.02 4.495 -10.02 4.495 -8 5 C-8 5.66 -8 6.32 -8 7 C-5.36 6.34 -2.72 5.68 0 5 C0 3.35 0 1.7 0 0 Z " fill="#DDA12F" transform="translate(44,286)"/>
<path d="M0 0 C0.66 0.33 1.32 0.66 2 1 C1.175 1.845625 0.35 2.69125 -0.5 3.5625 C-2.67952875 6.18040422 -2.99858677 6.98849229 -3.4375 10.5625 C-3.03305154 13.74030933 -2.39087943 16.13131118 -1 19 C-2.9375 18.0625 -2.9375 18.0625 -5 16 C-6.25584276 11.71195796 -6.50870433 8.19545518 -4.75 4.0625 C-3 2 -3 2 0 0 Z " fill="#D6A545" transform="translate(288,273)"/>
<path d="M0 0 C2.20277726 4.40555452 2.13908447 6.14049803 1.75 10.9375 C1.66234375 12.14277344 1.5746875 13.34804688 1.484375 14.58984375 C1.0392144 17.72391798 0.32295944 20.14262449 -1 23 C-1.66 23 -2.32 23 -3 23 C-3 23.66 -3 24.32 -3 25 C-3.66 24.67 -4.32 24.34 -5 24 C-4.34 22.68 -3.68 21.36 -3 20 C-2.34 20 -1.68 20 -1 20 C-0.67 13.4 -0.34 6.8 0 0 Z " fill="#E99A13" transform="translate(211,249)"/>
<path d="M0 0 C0.33 0 0.66 0 1 0 C1 1.65 1 3.3 1 5 C1.99 5.33 2.98 5.66 4 6 C3.67 6.99 3.34 7.98 3 9 C1.5 7.625 1.5 7.625 0 6 C0 5.34 0 4.68 0 4 C-0.99 4 -1.98 4 -3 4 C-3 8.29 -3 12.58 -3 17 C-3.33 17 -3.66 17 -4 17 C-4.33 12.38 -4.66 7.76 -5 3 C-3.35 2.67 -1.7 2.34 0 2 C0 1.34 0 0.68 0 0 Z " fill="#DDA33D" transform="translate(270,243)"/>
<path d="M0 0 C1.17949219 0.01804687 2.35898438 0.03609375 3.57421875 0.0546875 C4.92966797 0.08949219 4.92966797 0.08949219 6.3125 0.125 C3.26651253 2.15565831 2.18437319 2.41982404 -1.3125 2.6875 C-4.29864422 2.71477223 -4.29864422 2.71477223 -6.6875 4.125 C-6.0275 4.785 -5.3675 5.445 -4.6875 6.125 C-6.3375 5.795 -7.9875 5.465 -9.6875 5.125 C-9.6875 4.135 -9.6875 3.145 -9.6875 2.125 C-6.05554504 -0.29630331 -4.30400652 -0.08522785 0 0 Z " fill="#E3AE46" transform="translate(128.6875,266.875)"/>
<path d="M0 0 C0.556875 0.268125 1.11375 0.53625 1.6875 0.8125 C2.0175 2.1325 2.3475 3.4525 2.6875 4.8125 C0.7075 5.8025 0.7075 5.8025 -1.3125 6.8125 C-1.3125 5.8225 -1.3125 4.8325 -1.3125 3.8125 C-4.42582248 4.48118314 -4.42582248 4.48118314 -5.5 6.875 C-5.768125 7.514375 -6.03625 8.15375 -6.3125 8.8125 C-7.125 7.125 -7.125 7.125 -7.3125 4.8125 C-3.35769774 -0.27224576 -3.35769774 -0.27224576 0 0 Z " fill="#ED9D15" transform="translate(187.3125,108.1875)"/>
<path d="M0 0 C10.395 0.99 10.395 0.99 21 2 C19.68 2.33 18.36 2.66 17 3 C17 3.66 17 4.32 17 5 C15.10306139 4.71561048 13.20747973 4.42216208 11.3125 4.125 C10.25675781 3.96257812 9.20101563 3.80015625 8.11328125 3.6328125 C5.20205086 3.04106931 2.71044393 2.1968194 0 1 C0 0.67 0 0.34 0 0 Z " fill="#DB9A39" transform="translate(287,292)"/>
<path d="M0 0 C1.65 0.33 3.3 0.66 5 1 C5 2.32 5 3.64 5 5 C2.74339496 6.60337726 0.46835565 7.76582217 -2 9 C-1.34 6.03 -0.68 3.06 0 0 Z " fill="#ED9E16" transform="translate(9,258)"/>
<path d="M0 0 C1.32257813 0.19142578 1.32257813 0.19142578 2.671875 0.38671875 C4.00992188 0.56654297 4.00992188 0.56654297 5.375 0.75 C6.05046875 0.85699219 6.7259375 0.96398437 7.421875 1.07421875 C7.751875 2.06421875 8.081875 3.05421875 8.421875 4.07421875 C3.471875 3.74421875 -1.478125 3.41421875 -6.578125 3.07421875 C-2.578125 0.07421875 -2.578125 0.07421875 0 0 Z " fill="#E89E15" transform="translate(131.578125,263.92578125)"/>
<path d="M0 0 C0 0.66 0 1.32 0 2 C-3.72965139 4.03435531 -5.66905042 5 -10 5 C-10.33 5.99 -10.66 6.98 -11 8 C-13.0625 8.6875 -13.0625 8.6875 -15 9 C-11.19094101 3.64351079 -7.03293418 0 0 0 Z " fill="#DDAE54" transform="translate(282,3)"/>
<path d="M0 0 C-1.32 0.33 -2.64 0.66 -4 1 C-4 1.99 -4 2.98 -4 4 C-7 6 -7 6 -10 6 C-10.33 6.66 -10.66 7.32 -11 8 C-10.125 3.25 -10.125 3.25 -9 1 C-5.99083491 -0.07470182 -3.17106439 -0.08808512 0 0 Z " fill="#EC9F13" transform="translate(281,7)"/>
<path d="M0 0 C1.65 0 3.3 0 5 0 C5.0825 1.051875 5.165 2.10375 5.25 3.1875 C6.05320762 7.27047209 7.19334709 9.0122727 10 12 C8.25 11.875 8.25 11.875 6 11 C3.06644827 7.33306034 2 5.76869466 2 1 C1.34 0.67 0.68 0.34 0 0 Z " fill="#E89F17" transform="translate(90,272)"/>
<path d="M0 0 C-1.40883499 2.0252003 -2.50388059 2.91033987 -4.9453125 3.3515625 C-6.02425781 3.45597656 -6.02425781 3.45597656 -7.125 3.5625 C-8.40375 3.706875 -9.6825 3.85125 -11 4 C-11.33 4.66 -11.66 5.32 -12 6 C-12.66 5.34 -13.32 4.68 -14 4 C-12.23494565 3.13395466 -10.46271926 2.28251358 -8.6875 1.4375 C-7.70136719 0.96183594 -6.71523437 0.48617187 -5.69921875 -0.00390625 C-3 -1 -3 -1 0 0 Z " fill="#E5B053" transform="translate(103,146)"/>
<path d="M0 0 C0.268125 0.5775 0.53625 1.155 0.8125 1.75 C1.95053246 4.05747896 1.95053246 4.05747896 3.625 6.125 C5 8 5 8 5 10 C5.66 10 6.32 10 7 10 C8.625 12.5 8.625 12.5 10 15 C6.12744985 13.42229438 3.61606974 11.25241103 1 8 C0.30031057 5.26715505 0.14450989 2.84202784 0 0 Z " fill="#D2A045" transform="translate(91,273)"/>
<path d="M0 0 C0.99 0.33 1.98 0.66 3 1 C2.5020163 4.73487777 2.12508244 6.81237635 0 10 C-0.66 10 -1.32 10 -2 10 C-1.46274105 6.62294375 -0.88935377 3.303314 0 0 Z " fill="#E7A225" transform="translate(97,252)"/>
<path d="M0 0 C0.66 0 1.32 0 2 0 C1.75 2.375 1.75 2.375 1 5 C-0.33333333 5.66666667 -1.66666667 6.33333333 -3 7 C-3.65555119 9.52733235 -3.65555119 9.52733235 -4 12 C-4.99 12.495 -4.99 12.495 -6 13 C-4.7792482 7.91353417 -3.28080442 4.20353067 0 0 Z " fill="#E2A847" transform="translate(12,251)"/>
<path d="M0 0 C0.66 0 1.32 0 2 0 C2.6875 1.625 2.6875 1.625 3 4 C1.5625 7.25 1.5625 7.25 0 10 C-2.14915785 6.77626323 -2.38286803 5.73296326 -2 2 C-1.34 1.34 -0.68 0.68 0 0 Z " fill="#F09B13" transform="translate(368,77)"/>
<path d="M0 0 C9.92905692 4.89167375 9.92905692 4.89167375 12 10 C12 10.66 12 11.32 12 12 C10.68 11.34 9.36 10.68 8 10 C8 8.68 8 7.36 8 6 C6.02 5.34 4.04 4.68 2 4 C2 3.34 2 2.68 2 2 C1.34 2 0.68 2 0 2 C0 1.34 0 0.68 0 0 Z " fill="#D5AB4D" transform="translate(308,8)"/>
<path d="M0 0 C1.6415049 3.2830098 0.51888624 6.42545033 0 10 C-1.32 10.33 -2.64 10.66 -4 11 C-3.71890887 9.35232753 -3.42481474 7.70686855 -3.125 6.0625 C-2.96257813 5.14597656 -2.80015625 4.22945313 -2.6328125 3.28515625 C-2.42398437 2.53105469 -2.21515625 1.77695312 -2 1 C-1.34 0.67 -0.68 0.34 0 0 Z " fill="#E0A329" transform="translate(7,263)"/>
<path d="M0 0 C0.66 0.33 1.32 0.66 2 1 C1.375 3.875 1.375 3.875 0 7 C-3.125 8.375 -3.125 8.375 -6 9 C-5.6875 7.0625 -5.6875 7.0625 -5 5 C-4.01 4.67 -3.02 4.34 -2 4 C-0.79117904 1.99983534 -0.79117904 1.99983534 0 0 Z " fill="#E89E18" transform="translate(198,92)"/>
<path d="M0 0 C1.9375 0.125 1.9375 0.125 4 1 C5.1875 3.375 5.1875 3.375 6 6 C6.33 6.99 6.66 7.98 7 9 C7.66 9 8.32 9 9 9 C9 9.99 9 10.98 9 12 C8.34 12 7.68 12 7 12 C4.46093936 9.38626111 3.07743148 7.87110419 2.75 4.1875 C2.8325 3.465625 2.915 2.74375 3 2 C1.68 1.67 0.36 1.34 -1 1 C-0.67 0.67 -0.34 0.34 0 0 Z " fill="#E5A021" transform="translate(312,13)"/>
<path d="M0 0 C0.66 0 1.32 0 2 0 C2.04125 0.7425 2.0825 1.485 2.125 2.25 C3.34439978 6.0823993 5.66568673 6.94265777 9 9 C9 9.66 9 10.32 9 11 C1.89473684 8.94736842 1.89473684 8.94736842 0 6 C-0.1875 2.8125 -0.1875 2.8125 0 0 Z " fill="#D5A447" transform="translate(35,275)"/>
<path d="M0 0 C0.66 0.33 1.32 0.66 2 1 C2 5.62 2 10.24 2 15 C0.21210334 11.42420668 -0.34287914 9.63722654 -0.6875 5.8125 C-0.77386719 4.93207031 -0.86023438 4.05164063 -0.94921875 3.14453125 C-0.96597656 2.43683594 -0.98273438 1.72914063 -1 1 C-0.67 0.67 -0.34 0.34 0 0 Z " fill="#E89A1B" transform="translate(264,245)"/>
<path d="M0 0 C0 0.99 0 1.98 0 3 C-1.65 3.33 -3.3 3.66 -5 4 C-5 4.66 -5 5.32 -5 6 C-6.98 6 -8.96 6 -11 6 C-9.73083275 3.46166551 -8.58375191 3.10599099 -6.0625 1.875 C-5.35222656 1.52179688 -4.64195313 1.16859375 -3.91015625 0.8046875 C-2 0 -2 0 0 0 Z " fill="#E5B759" transform="translate(89,151)"/>
<path d="M0 0 C0.99 0.33 1.98 0.66 3 1 C2.01 1.33 1.02 1.66 0 2 C0.66 3.65 1.32 5.3 2 7 C-0.97 6.505 -0.97 6.505 -4 6 C-3.6875 4.125 -3.6875 4.125 -3 2 C-2.01 1.34 -1.02 0.68 0 0 Z " fill="#E89F15" transform="translate(119,267)"/>
<path d="M0 0 C1.65 0 3.3 0 5 0 C6.11658501 4.68965706 5.80619523 7.53763531 4 12 C2.19588033 9.24075815 1.9872755 8.11027897 2.375 4.75 C2.58125 3.8425 2.7875 2.935 3 2 C2.01 1.34 1.02 0.68 0 0 Z " fill="#EC9C14" transform="translate(211,238)"/>
<path d="M0 0 C2.6815279 3.07692746 3.42087807 5.19734663 3.6875 9.25 C3.75324219 10.14203125 3.81898438 11.0340625 3.88671875 11.953125 C3.92410156 12.62859375 3.96148437 13.3040625 4 14 C1.3184721 10.92307254 0.57912193 8.80265337 0.3125 4.75 C0.24675781 3.85796875 0.18101562 2.9659375 0.11328125 2.046875 C0.07589844 1.37140625 0.03851563 0.6959375 0 0 Z " fill="#D7A84A" transform="translate(350,194)"/>
<path d="M0 0 C0.33 1.32 0.66 2.64 1 4 C-1.64 4.66 -4.28 5.32 -7 6 C-3.61538462 0 -3.61538462 0 0 0 Z " fill="#E59E18" transform="translate(294,272)"/>
<path d="M0 0 C0.33 0 0.66 0 1 0 C2.55518007 6.9384957 2.55518007 6.9384957 1.0234375 9.8671875 C-0.3125 11.5 -0.3125 11.5 -3 14 C-3.66 14 -4.32 14 -5 14 C-5 12.68 -5 11.36 -5 10 C-4.360625 9.835 -3.72125 9.67 -3.0625 9.5 C-0.83880759 8.218214 -0.83880759 8.218214 -0.51171875 6.0859375 C-0.2724022 4.06424845 -0.13106972 2.03158061 0 0 Z " fill="#EC9F14" transform="translate(173,244)"/>
<path d="M0 0 C0.99 0.33 1.98 0.66 3 1 C1.73850149 4.78449552 0.41155305 5.13176857 -3 7 C-3.99 7.66 -4.98 8.32 -6 9 C-4.68775452 5.06326356 -3.08089673 2.77280706 0 0 Z " fill="#E6AA40" transform="translate(186,104)"/>
<path d="M0 0 C0.90105469 0.01804687 1.80210937 0.03609375 2.73046875 0.0546875 C3.41753906 0.07789063 4.10460937 0.10109375 4.8125 0.125 C4.8125 0.785 4.8125 1.445 4.8125 2.125 C1.61234144 3.19171952 -0.07294294 3.07345472 -3.375 2.6875 C-4.27605469 2.58566406 -5.17710937 2.48382813 -6.10546875 2.37890625 C-6.79253906 2.29511719 -7.47960937 2.21132813 -8.1875 2.125 C-4.87379 -0.08414 -3.8428979 -0.09981553 0 0 Z " fill="#EA9F1B" transform="translate(334.1875,292.875)"/>
<path d="M0 0 C0.33 0 0.66 0 1 0 C1.43535798 4.35357983 1.38921814 7.04099736 -1.375 10.4375 C-4 13 -4 13 -6 13 C-5.01772423 10.80876943 -4.25591309 9.22520352 -2.4375 7.625 C-0.37721065 5.29597725 -0.3360683 3.02461466 0 0 Z " fill="#D69E3F" transform="translate(176,245)"/>
<path d="M0 0 C1.485 0.99 1.485 0.99 3 2 C3.29296875 4.6015625 3.29296875 4.6015625 3.1875 7.625 C3.16042969 8.62789063 3.13335937 9.63078125 3.10546875 10.6640625 C3.07066406 11.43492187 3.03585937 12.20578125 3 13 C2.01 13.495 2.01 13.495 1 14 C1.33 11.69 1.66 9.38 2 7 C1.34 7 0.68 7 0 7 C0 4.69 0 2.38 0 0 Z " fill="#F09E17" transform="translate(355,249)"/>
<path d="M0 0 C0.66 0.33 1.32 0.66 2 1 C1.01 2.98 0.02 4.96 -1 7 C-2.32 5.68 -3.64 4.36 -5 3 C-4.34 3 -3.68 3 -3 3 C-3 2.34 -3 1.68 -3 1 C-2.01 0.67 -1.02 0.34 0 0 Z " fill="#F1A820" transform="translate(87,154)"/>
<path d="M0 0 C0.66 0 1.32 0 2 0 C0.69715366 3.90853901 -0.7079944 6.46045282 -4 9 C-6.75 9.25 -6.75 9.25 -9 9 C-6 7 -6 7 -4 7 C-3.67 6.01 -3.34 5.02 -3 4 C-2.34 3.67 -1.68 3.34 -1 3 C-0.67 2.01 -0.34 1.02 0 0 Z " fill="#DB9F40" transform="translate(362,95)"/>
<path d="M0 0 C2.76276177 0.52268466 5.3260876 1.10869587 8 2 C8 3.65 8 5.3 8 7 C6.66382648 6.02471263 5.3311249 5.04466681 4 4.0625 C3.2575 3.51722656 2.515 2.97195312 1.75 2.41015625 C1.1725 1.94480469 0.595 1.47945312 0 1 C0 0.67 0 0.34 0 0 Z " fill="#DDA531" transform="translate(274,252)"/>
<path d="M0 0 C2.97 0 5.94 0 9 0 C9 0.66 9 1.32 9 2 C4.545 2.495 4.545 2.495 0 3 C0 2.01 0 1.02 0 0 Z " fill="#D7A035" transform="translate(202,237)"/>
<path d="M0 0 C0.33 0.99 0.66 1.98 1 3 C-0.98 4.98 -2.96 6.96 -5 9 C-5.66 8.67 -6.32 8.34 -7 8 C-5.08864614 4.46399535 -3.37357234 2.21027154 0 0 Z " fill="#E1A11D" transform="translate(48,208)"/>
<path d="M0 0 C3.37705625 0.53725895 6.696686 1.11064623 10 2 C10 2.66 10 3.32 10 4 C10.66 4.33 11.32 4.66 12 5 C6 3.5 6 3.5 0 2 C0 1.34 0 0.68 0 0 Z " fill="#E89F13" transform="translate(300,8)"/>
<path d="M0 0 C-1.28913487 0.67154933 -2.58140204 1.33708859 -3.875 2 C-4.59429687 2.37125 -5.31359375 2.7425 -6.0546875 3.125 C-8 4 -8 4 -10 4 C-9.67 2.68 -9.34 1.36 -9 0 C-5.5657338 -0.85856655 -3.38317487 -0.97591583 0 0 Z " fill="#DFA63C" transform="translate(60,264)"/>
<path d="M0 0 C0.66 0 1.32 0 2 0 C1.44271087 3.34373475 0.64826111 6.03312999 -1 9 C-1.33 9 -1.66 9 -2 9 C-1.125 1.125 -1.125 1.125 0 0 Z " fill="#DBA242" transform="translate(357,262)"/>
<path d="M0 0 C0.33 0 0.66 0 1 0 C1 2.64 1 5.28 1 8 C-0.98 8.66 -2.96 9.32 -5 10 C-4.360625 9.0925 -3.72125 8.185 -3.0625 7.25 C-1.38571047 4.60778619 -0.46310002 3.0101501 0 0 Z " fill="#DEAB4B" transform="translate(240,38)"/>
<path d="M0 0 C1.98 0 3.96 0 6 0 C2.57653445 3.14958831 -0.44262737 3.56179109 -5 4 C-4.34 3.34 -3.68 2.68 -3 2 C-2.01 2 -1.02 2 0 2 C0 1.34 0 0.68 0 0 Z " fill="#E1AC39" transform="translate(66,259)"/>
<path d="M0 0 C-0.556875 0.268125 -1.11375 0.53625 -1.6875 0.8125 C-4.08933398 2.00699665 -4.08933398 2.00699665 -6.625 3.625 C-9 5 -9 5 -11 5 C-10.25 3.0625 -10.25 3.0625 -9 1 C-6.05528957 -0.21850087 -3.15451555 -0.08762543 0 0 Z " fill="#DBAC4E" transform="translate(84,254)"/>
<path d="M0 0 C1.9375 0.75 1.9375 0.75 4 2 C4.75 4.125 4.75 4.125 5 6 C4.01 6.33 3.02 6.66 2 7 C1.34 4.69 0.68 2.38 0 0 Z " fill="#E4A11E" transform="translate(322,151)"/>
<path d="M0 0 C1.26026798 2.52053595 0.91874445 3.8542098 0.5625 6.625 C0.46066406 7.44226562 0.35882813 8.25953125 0.25390625 9.1015625 C0.17011719 9.72804688 0.08632812 10.35453125 0 11 C-0.99 11.33 -1.98 11.66 -3 12 C-3.66 11.34 -4.32 10.68 -5 10 C-3.68 9.67 -2.36 9.34 -1 9 C-1.020625 7.700625 -1.04125 6.40125 -1.0625 5.0625 C-1.08399454 3.70834367 -1.07148199 2.35243917 -1 1 C-0.67 0.67 -0.34 0.34 0 0 Z " fill="#E19B19" transform="translate(242,37)"/>
<path d="M0 0 C0.33 0.66 0.66 1.32 1 2 C1.66 2 2.32 2 3 2 C3 4.31 3 6.62 3 9 C1.5 7.875 1.5 7.875 0 6 C-0.1875 2.8125 -0.1875 2.8125 0 0 Z " fill="#D59C28" transform="translate(352,206)"/>
<path d="M0 0 C3 2 3 2 3.51171875 4.3828125 C3.56972656 5.28773438 3.62773437 6.19265625 3.6875 7.125 C3.75324219 8.03507813 3.81898438 8.94515625 3.88671875 9.8828125 C3.92410156 10.58148438 3.96148437 11.28015625 4 12 C1.57362248 8.36043372 0 4.44144233 0 0 Z " fill="#EBA11A" transform="translate(348,196)"/>
<path d="M0 0 C0.99 0.33 1.98 0.66 3 1 C2.34 2.65 1.68 4.3 1 6 C0.01 6 -0.98 6 -2 6 C-1.34 4.02 -0.68 2.04 0 0 Z " fill="#DCA733" transform="translate(56,183)"/>
</svg>
